M48
INCH,TZ
T1C0.0118
T2C0.0315
T3C0.0394
%
G90
G05
T1
X59480Y-31400
X59520Y-32460
T2
X52004Y-38189
X53004Y-38189
X54004Y-38189
X55004Y-38189
X56004Y-38189
X57004Y-38189
X72634Y-24803
X73634Y-24803
X74634Y-24803
X75634Y-24803
T3
X60750Y-24409
X60750Y-25409
X60750Y-26409
X60750Y-27409
X60750Y-28409
X60750Y-29409
X60750Y-30409
X60750Y-31409
X60750Y-32409
X60750Y-33409
X60750Y-34409
X60750Y-35409
X60750Y-36409
X60750Y-37409
X60750Y-38409
X66750Y-24409
X66750Y-25409
X66750Y-26409
X66750Y-27409
X66750Y-28409
X66750Y-29409
X66750Y-30409
X66750Y-31409
X66750Y-32409
X66750Y-33409
X66750Y-34409
X66750Y-35409
X66750Y-36409
X66750Y-37409
X66750Y-38409
M30
