G04 #@! TF.GenerationSoftware,KiCad,Pcbnew,9.0.2*
G04 #@! TF.CreationDate,2025-07-10T23:05:19-07:00*
G04 #@! TF.ProjectId,Digi-Clock,44696769-2d43-46c6-9f63-6b2e6b696361,rev?*
G04 #@! TF.SameCoordinates,Original*
G04 #@! TF.FileFunction,Soldermask,Bot*
G04 #@! TF.FilePolarity,Negative*
%FSLAX46Y46*%
G04 Gerber Fmt 4.6, Leading zero omitted, Abs format (unit mm)*
G04 Created by KiCad (PCBNEW 9.0.2) date 2025-07-10 23:05:19*
%MOMM*%
%LPD*%
G01*
G04 APERTURE LIST*
G04 APERTURE END LIST*
G36*
X170345000Y-98360000D02*
G01*
X168745000Y-98360000D01*
X168745000Y-96760000D01*
X170345000Y-96760000D01*
X170345000Y-98360000D01*
G37*
G36*
X154537228Y-96794448D02*
G01*
X154682117Y-96854463D01*
X154812515Y-96941592D01*
X154923408Y-97052485D01*
X155010537Y-97182883D01*
X155070552Y-97327772D01*
X155101148Y-97481586D01*
X155101148Y-97638414D01*
X155070552Y-97792228D01*
X155010537Y-97937117D01*
X154923408Y-98067515D01*
X154812515Y-98178408D01*
X154682117Y-98265537D01*
X154537228Y-98325552D01*
X154383414Y-98356148D01*
X154226586Y-98356148D01*
X154072772Y-98325552D01*
X153927883Y-98265537D01*
X153797485Y-98178408D01*
X153686592Y-98067515D01*
X153599463Y-97937117D01*
X153539448Y-97792228D01*
X153508852Y-97638414D01*
X153508852Y-97481586D01*
X153539448Y-97327772D01*
X153599463Y-97182883D01*
X153686592Y-97052485D01*
X153797485Y-96941592D01*
X153927883Y-96854463D01*
X154072772Y-96794448D01*
X154226586Y-96763852D01*
X154383414Y-96763852D01*
X154537228Y-96794448D01*
G37*
G36*
X145560000Y-97770000D02*
G01*
X144020000Y-97770000D01*
X144020000Y-96230000D01*
X145560000Y-96230000D01*
X145560000Y-97770000D01*
G37*
G36*
X132313519Y-96263156D02*
G01*
X132452975Y-96320921D01*
X132578483Y-96404782D01*
X132685218Y-96511517D01*
X132769079Y-96637025D01*
X132826844Y-96776481D01*
X132856292Y-96924527D01*
X132856292Y-97075473D01*
X132826844Y-97223519D01*
X132769079Y-97362975D01*
X132685218Y-97488483D01*
X132578483Y-97595218D01*
X132452975Y-97679079D01*
X132313519Y-97736844D01*
X132165473Y-97766292D01*
X132014527Y-97766292D01*
X131866481Y-97736844D01*
X131727025Y-97679079D01*
X131601517Y-97595218D01*
X131494782Y-97488483D01*
X131410921Y-97362975D01*
X131353156Y-97223519D01*
X131323708Y-97075473D01*
X131323708Y-96924527D01*
X131353156Y-96776481D01*
X131410921Y-96637025D01*
X131494782Y-96511517D01*
X131601517Y-96404782D01*
X131727025Y-96320921D01*
X131866481Y-96263156D01*
X132014527Y-96233708D01*
X132165473Y-96233708D01*
X132313519Y-96263156D01*
G37*
G36*
X134853519Y-96263156D02*
G01*
X134992975Y-96320921D01*
X135118483Y-96404782D01*
X135225218Y-96511517D01*
X135309079Y-96637025D01*
X135366844Y-96776481D01*
X135396292Y-96924527D01*
X135396292Y-97075473D01*
X135366844Y-97223519D01*
X135309079Y-97362975D01*
X135225218Y-97488483D01*
X135118483Y-97595218D01*
X134992975Y-97679079D01*
X134853519Y-97736844D01*
X134705473Y-97766292D01*
X134554527Y-97766292D01*
X134406481Y-97736844D01*
X134267025Y-97679079D01*
X134141517Y-97595218D01*
X134034782Y-97488483D01*
X133950921Y-97362975D01*
X133893156Y-97223519D01*
X133863708Y-97075473D01*
X133863708Y-96924527D01*
X133893156Y-96776481D01*
X133950921Y-96637025D01*
X134034782Y-96511517D01*
X134141517Y-96404782D01*
X134267025Y-96320921D01*
X134406481Y-96263156D01*
X134554527Y-96233708D01*
X134705473Y-96233708D01*
X134853519Y-96263156D01*
G37*
G36*
X137393519Y-96263156D02*
G01*
X137532975Y-96320921D01*
X137658483Y-96404782D01*
X137765218Y-96511517D01*
X137849079Y-96637025D01*
X137906844Y-96776481D01*
X137936292Y-96924527D01*
X137936292Y-97075473D01*
X137906844Y-97223519D01*
X137849079Y-97362975D01*
X137765218Y-97488483D01*
X137658483Y-97595218D01*
X137532975Y-97679079D01*
X137393519Y-97736844D01*
X137245473Y-97766292D01*
X137094527Y-97766292D01*
X136946481Y-97736844D01*
X136807025Y-97679079D01*
X136681517Y-97595218D01*
X136574782Y-97488483D01*
X136490921Y-97362975D01*
X136433156Y-97223519D01*
X136403708Y-97075473D01*
X136403708Y-96924527D01*
X136433156Y-96776481D01*
X136490921Y-96637025D01*
X136574782Y-96511517D01*
X136681517Y-96404782D01*
X136807025Y-96320921D01*
X136946481Y-96263156D01*
X137094527Y-96233708D01*
X137245473Y-96233708D01*
X137393519Y-96263156D01*
G37*
G36*
X139933519Y-96263156D02*
G01*
X140072975Y-96320921D01*
X140198483Y-96404782D01*
X140305218Y-96511517D01*
X140389079Y-96637025D01*
X140446844Y-96776481D01*
X140476292Y-96924527D01*
X140476292Y-97075473D01*
X140446844Y-97223519D01*
X140389079Y-97362975D01*
X140305218Y-97488483D01*
X140198483Y-97595218D01*
X140072975Y-97679079D01*
X139933519Y-97736844D01*
X139785473Y-97766292D01*
X139634527Y-97766292D01*
X139486481Y-97736844D01*
X139347025Y-97679079D01*
X139221517Y-97595218D01*
X139114782Y-97488483D01*
X139030921Y-97362975D01*
X138973156Y-97223519D01*
X138943708Y-97075473D01*
X138943708Y-96924527D01*
X138973156Y-96776481D01*
X139030921Y-96637025D01*
X139114782Y-96511517D01*
X139221517Y-96404782D01*
X139347025Y-96320921D01*
X139486481Y-96263156D01*
X139634527Y-96233708D01*
X139785473Y-96233708D01*
X139933519Y-96263156D01*
G37*
G36*
X142473519Y-96263156D02*
G01*
X142612975Y-96320921D01*
X142738483Y-96404782D01*
X142845218Y-96511517D01*
X142929079Y-96637025D01*
X142986844Y-96776481D01*
X143016292Y-96924527D01*
X143016292Y-97075473D01*
X142986844Y-97223519D01*
X142929079Y-97362975D01*
X142845218Y-97488483D01*
X142738483Y-97595218D01*
X142612975Y-97679079D01*
X142473519Y-97736844D01*
X142325473Y-97766292D01*
X142174527Y-97766292D01*
X142026481Y-97736844D01*
X141887025Y-97679079D01*
X141761517Y-97595218D01*
X141654782Y-97488483D01*
X141570921Y-97362975D01*
X141513156Y-97223519D01*
X141483708Y-97075473D01*
X141483708Y-96924527D01*
X141513156Y-96776481D01*
X141570921Y-96637025D01*
X141654782Y-96511517D01*
X141761517Y-96404782D01*
X141887025Y-96320921D01*
X142026481Y-96263156D01*
X142174527Y-96233708D01*
X142325473Y-96233708D01*
X142473519Y-96263156D01*
G37*
G36*
X154537228Y-94254448D02*
G01*
X154682117Y-94314463D01*
X154812515Y-94401592D01*
X154923408Y-94512485D01*
X155010537Y-94642883D01*
X155070552Y-94787772D01*
X155101148Y-94941586D01*
X155101148Y-95098414D01*
X155070552Y-95252228D01*
X155010537Y-95397117D01*
X154923408Y-95527515D01*
X154812515Y-95638408D01*
X154682117Y-95725537D01*
X154537228Y-95785552D01*
X154383414Y-95816148D01*
X154226586Y-95816148D01*
X154072772Y-95785552D01*
X153927883Y-95725537D01*
X153797485Y-95638408D01*
X153686592Y-95527515D01*
X153599463Y-95397117D01*
X153539448Y-95252228D01*
X153508852Y-95098414D01*
X153508852Y-94941586D01*
X153539448Y-94787772D01*
X153599463Y-94642883D01*
X153686592Y-94512485D01*
X153797485Y-94401592D01*
X153927883Y-94314463D01*
X154072772Y-94254448D01*
X154226586Y-94223852D01*
X154383414Y-94223852D01*
X154537228Y-94254448D01*
G37*
G36*
X169777228Y-94254448D02*
G01*
X169922117Y-94314463D01*
X170052515Y-94401592D01*
X170163408Y-94512485D01*
X170250537Y-94642883D01*
X170310552Y-94787772D01*
X170341148Y-94941586D01*
X170341148Y-95098414D01*
X170310552Y-95252228D01*
X170250537Y-95397117D01*
X170163408Y-95527515D01*
X170052515Y-95638408D01*
X169922117Y-95725537D01*
X169777228Y-95785552D01*
X169623414Y-95816148D01*
X169466586Y-95816148D01*
X169312772Y-95785552D01*
X169167883Y-95725537D01*
X169037485Y-95638408D01*
X168926592Y-95527515D01*
X168839463Y-95397117D01*
X168779448Y-95252228D01*
X168748852Y-95098414D01*
X168748852Y-94941586D01*
X168779448Y-94787772D01*
X168839463Y-94642883D01*
X168926592Y-94512485D01*
X169037485Y-94401592D01*
X169167883Y-94314463D01*
X169312772Y-94254448D01*
X169466586Y-94223852D01*
X169623414Y-94223852D01*
X169777228Y-94254448D01*
G37*
G36*
X154537228Y-91714448D02*
G01*
X154682117Y-91774463D01*
X154812515Y-91861592D01*
X154923408Y-91972485D01*
X155010537Y-92102883D01*
X155070552Y-92247772D01*
X155101148Y-92401586D01*
X155101148Y-92558414D01*
X155070552Y-92712228D01*
X155010537Y-92857117D01*
X154923408Y-92987515D01*
X154812515Y-93098408D01*
X154682117Y-93185537D01*
X154537228Y-93245552D01*
X154383414Y-93276148D01*
X154226586Y-93276148D01*
X154072772Y-93245552D01*
X153927883Y-93185537D01*
X153797485Y-93098408D01*
X153686592Y-92987515D01*
X153599463Y-92857117D01*
X153539448Y-92712228D01*
X153508852Y-92558414D01*
X153508852Y-92401586D01*
X153539448Y-92247772D01*
X153599463Y-92102883D01*
X153686592Y-91972485D01*
X153797485Y-91861592D01*
X153927883Y-91774463D01*
X154072772Y-91714448D01*
X154226586Y-91683852D01*
X154383414Y-91683852D01*
X154537228Y-91714448D01*
G37*
G36*
X169777228Y-91714448D02*
G01*
X169922117Y-91774463D01*
X170052515Y-91861592D01*
X170163408Y-91972485D01*
X170250537Y-92102883D01*
X170310552Y-92247772D01*
X170341148Y-92401586D01*
X170341148Y-92558414D01*
X170310552Y-92712228D01*
X170250537Y-92857117D01*
X170163408Y-92987515D01*
X170052515Y-93098408D01*
X169922117Y-93185537D01*
X169777228Y-93245552D01*
X169623414Y-93276148D01*
X169466586Y-93276148D01*
X169312772Y-93245552D01*
X169167883Y-93185537D01*
X169037485Y-93098408D01*
X168926592Y-92987515D01*
X168839463Y-92857117D01*
X168779448Y-92712228D01*
X168748852Y-92558414D01*
X168748852Y-92401586D01*
X168779448Y-92247772D01*
X168839463Y-92102883D01*
X168926592Y-91972485D01*
X169037485Y-91861592D01*
X169167883Y-91774463D01*
X169312772Y-91714448D01*
X169466586Y-91683852D01*
X169623414Y-91683852D01*
X169777228Y-91714448D01*
G37*
G36*
X154537228Y-89174448D02*
G01*
X154682117Y-89234463D01*
X154812515Y-89321592D01*
X154923408Y-89432485D01*
X155010537Y-89562883D01*
X155070552Y-89707772D01*
X155101148Y-89861586D01*
X155101148Y-90018414D01*
X155070552Y-90172228D01*
X155010537Y-90317117D01*
X154923408Y-90447515D01*
X154812515Y-90558408D01*
X154682117Y-90645537D01*
X154537228Y-90705552D01*
X154383414Y-90736148D01*
X154226586Y-90736148D01*
X154072772Y-90705552D01*
X153927883Y-90645537D01*
X153797485Y-90558408D01*
X153686592Y-90447515D01*
X153599463Y-90317117D01*
X153539448Y-90172228D01*
X153508852Y-90018414D01*
X153508852Y-89861586D01*
X153539448Y-89707772D01*
X153599463Y-89562883D01*
X153686592Y-89432485D01*
X153797485Y-89321592D01*
X153927883Y-89234463D01*
X154072772Y-89174448D01*
X154226586Y-89143852D01*
X154383414Y-89143852D01*
X154537228Y-89174448D01*
G37*
G36*
X169777228Y-89174448D02*
G01*
X169922117Y-89234463D01*
X170052515Y-89321592D01*
X170163408Y-89432485D01*
X170250537Y-89562883D01*
X170310552Y-89707772D01*
X170341148Y-89861586D01*
X170341148Y-90018414D01*
X170310552Y-90172228D01*
X170250537Y-90317117D01*
X170163408Y-90447515D01*
X170052515Y-90558408D01*
X169922117Y-90645537D01*
X169777228Y-90705552D01*
X169623414Y-90736148D01*
X169466586Y-90736148D01*
X169312772Y-90705552D01*
X169167883Y-90645537D01*
X169037485Y-90558408D01*
X168926592Y-90447515D01*
X168839463Y-90317117D01*
X168779448Y-90172228D01*
X168748852Y-90018414D01*
X168748852Y-89861586D01*
X168779448Y-89707772D01*
X168839463Y-89562883D01*
X168926592Y-89432485D01*
X169037485Y-89321592D01*
X169167883Y-89234463D01*
X169312772Y-89174448D01*
X169466586Y-89143852D01*
X169623414Y-89143852D01*
X169777228Y-89174448D01*
G37*
G36*
X154537228Y-86634448D02*
G01*
X154682117Y-86694463D01*
X154812515Y-86781592D01*
X154923408Y-86892485D01*
X155010537Y-87022883D01*
X155070552Y-87167772D01*
X155101148Y-87321586D01*
X155101148Y-87478414D01*
X155070552Y-87632228D01*
X155010537Y-87777117D01*
X154923408Y-87907515D01*
X154812515Y-88018408D01*
X154682117Y-88105537D01*
X154537228Y-88165552D01*
X154383414Y-88196148D01*
X154226586Y-88196148D01*
X154072772Y-88165552D01*
X153927883Y-88105537D01*
X153797485Y-88018408D01*
X153686592Y-87907515D01*
X153599463Y-87777117D01*
X153539448Y-87632228D01*
X153508852Y-87478414D01*
X153508852Y-87321586D01*
X153539448Y-87167772D01*
X153599463Y-87022883D01*
X153686592Y-86892485D01*
X153797485Y-86781592D01*
X153927883Y-86694463D01*
X154072772Y-86634448D01*
X154226586Y-86603852D01*
X154383414Y-86603852D01*
X154537228Y-86634448D01*
G37*
G36*
X169777228Y-86634448D02*
G01*
X169922117Y-86694463D01*
X170052515Y-86781592D01*
X170163408Y-86892485D01*
X170250537Y-87022883D01*
X170310552Y-87167772D01*
X170341148Y-87321586D01*
X170341148Y-87478414D01*
X170310552Y-87632228D01*
X170250537Y-87777117D01*
X170163408Y-87907515D01*
X170052515Y-88018408D01*
X169922117Y-88105537D01*
X169777228Y-88165552D01*
X169623414Y-88196148D01*
X169466586Y-88196148D01*
X169312772Y-88165552D01*
X169167883Y-88105537D01*
X169037485Y-88018408D01*
X168926592Y-87907515D01*
X168839463Y-87777117D01*
X168779448Y-87632228D01*
X168748852Y-87478414D01*
X168748852Y-87321586D01*
X168779448Y-87167772D01*
X168839463Y-87022883D01*
X168926592Y-86892485D01*
X169037485Y-86781592D01*
X169167883Y-86694463D01*
X169312772Y-86634448D01*
X169466586Y-86603852D01*
X169623414Y-86603852D01*
X169777228Y-86634448D01*
G37*
G36*
X154537228Y-84094448D02*
G01*
X154682117Y-84154463D01*
X154812515Y-84241592D01*
X154923408Y-84352485D01*
X155010537Y-84482883D01*
X155070552Y-84627772D01*
X155101148Y-84781586D01*
X155101148Y-84938414D01*
X155070552Y-85092228D01*
X155010537Y-85237117D01*
X154923408Y-85367515D01*
X154812515Y-85478408D01*
X154682117Y-85565537D01*
X154537228Y-85625552D01*
X154383414Y-85656148D01*
X154226586Y-85656148D01*
X154072772Y-85625552D01*
X153927883Y-85565537D01*
X153797485Y-85478408D01*
X153686592Y-85367515D01*
X153599463Y-85237117D01*
X153539448Y-85092228D01*
X153508852Y-84938414D01*
X153508852Y-84781586D01*
X153539448Y-84627772D01*
X153599463Y-84482883D01*
X153686592Y-84352485D01*
X153797485Y-84241592D01*
X153927883Y-84154463D01*
X154072772Y-84094448D01*
X154226586Y-84063852D01*
X154383414Y-84063852D01*
X154537228Y-84094448D01*
G37*
G36*
X169777228Y-84094448D02*
G01*
X169922117Y-84154463D01*
X170052515Y-84241592D01*
X170163408Y-84352485D01*
X170250537Y-84482883D01*
X170310552Y-84627772D01*
X170341148Y-84781586D01*
X170341148Y-84938414D01*
X170310552Y-85092228D01*
X170250537Y-85237117D01*
X170163408Y-85367515D01*
X170052515Y-85478408D01*
X169922117Y-85565537D01*
X169777228Y-85625552D01*
X169623414Y-85656148D01*
X169466586Y-85656148D01*
X169312772Y-85625552D01*
X169167883Y-85565537D01*
X169037485Y-85478408D01*
X168926592Y-85367515D01*
X168839463Y-85237117D01*
X168779448Y-85092228D01*
X168748852Y-84938414D01*
X168748852Y-84781586D01*
X168779448Y-84627772D01*
X168839463Y-84482883D01*
X168926592Y-84352485D01*
X169037485Y-84241592D01*
X169167883Y-84154463D01*
X169312772Y-84094448D01*
X169466586Y-84063852D01*
X169623414Y-84063852D01*
X169777228Y-84094448D01*
G37*
G36*
X154537228Y-81554448D02*
G01*
X154682117Y-81614463D01*
X154812515Y-81701592D01*
X154923408Y-81812485D01*
X155010537Y-81942883D01*
X155070552Y-82087772D01*
X155101148Y-82241586D01*
X155101148Y-82398414D01*
X155070552Y-82552228D01*
X155010537Y-82697117D01*
X154923408Y-82827515D01*
X154812515Y-82938408D01*
X154682117Y-83025537D01*
X154537228Y-83085552D01*
X154383414Y-83116148D01*
X154226586Y-83116148D01*
X154072772Y-83085552D01*
X153927883Y-83025537D01*
X153797485Y-82938408D01*
X153686592Y-82827515D01*
X153599463Y-82697117D01*
X153539448Y-82552228D01*
X153508852Y-82398414D01*
X153508852Y-82241586D01*
X153539448Y-82087772D01*
X153599463Y-81942883D01*
X153686592Y-81812485D01*
X153797485Y-81701592D01*
X153927883Y-81614463D01*
X154072772Y-81554448D01*
X154226586Y-81523852D01*
X154383414Y-81523852D01*
X154537228Y-81554448D01*
G37*
G36*
X169777228Y-81554448D02*
G01*
X169922117Y-81614463D01*
X170052515Y-81701592D01*
X170163408Y-81812485D01*
X170250537Y-81942883D01*
X170310552Y-82087772D01*
X170341148Y-82241586D01*
X170341148Y-82398414D01*
X170310552Y-82552228D01*
X170250537Y-82697117D01*
X170163408Y-82827515D01*
X170052515Y-82938408D01*
X169922117Y-83025537D01*
X169777228Y-83085552D01*
X169623414Y-83116148D01*
X169466586Y-83116148D01*
X169312772Y-83085552D01*
X169167883Y-83025537D01*
X169037485Y-82938408D01*
X168926592Y-82827515D01*
X168839463Y-82697117D01*
X168779448Y-82552228D01*
X168748852Y-82398414D01*
X168748852Y-82241586D01*
X168779448Y-82087772D01*
X168839463Y-81942883D01*
X168926592Y-81812485D01*
X169037485Y-81701592D01*
X169167883Y-81614463D01*
X169312772Y-81554448D01*
X169466586Y-81523852D01*
X169623414Y-81523852D01*
X169777228Y-81554448D01*
G37*
G36*
X154537228Y-79014448D02*
G01*
X154682117Y-79074463D01*
X154812515Y-79161592D01*
X154923408Y-79272485D01*
X155010537Y-79402883D01*
X155070552Y-79547772D01*
X155101148Y-79701586D01*
X155101148Y-79858414D01*
X155070552Y-80012228D01*
X155010537Y-80157117D01*
X154923408Y-80287515D01*
X154812515Y-80398408D01*
X154682117Y-80485537D01*
X154537228Y-80545552D01*
X154383414Y-80576148D01*
X154226586Y-80576148D01*
X154072772Y-80545552D01*
X153927883Y-80485537D01*
X153797485Y-80398408D01*
X153686592Y-80287515D01*
X153599463Y-80157117D01*
X153539448Y-80012228D01*
X153508852Y-79858414D01*
X153508852Y-79701586D01*
X153539448Y-79547772D01*
X153599463Y-79402883D01*
X153686592Y-79272485D01*
X153797485Y-79161592D01*
X153927883Y-79074463D01*
X154072772Y-79014448D01*
X154226586Y-78983852D01*
X154383414Y-78983852D01*
X154537228Y-79014448D01*
G37*
G36*
X169777228Y-79014448D02*
G01*
X169922117Y-79074463D01*
X170052515Y-79161592D01*
X170163408Y-79272485D01*
X170250537Y-79402883D01*
X170310552Y-79547772D01*
X170341148Y-79701586D01*
X170341148Y-79858414D01*
X170310552Y-80012228D01*
X170250537Y-80157117D01*
X170163408Y-80287515D01*
X170052515Y-80398408D01*
X169922117Y-80485537D01*
X169777228Y-80545552D01*
X169623414Y-80576148D01*
X169466586Y-80576148D01*
X169312772Y-80545552D01*
X169167883Y-80485537D01*
X169037485Y-80398408D01*
X168926592Y-80287515D01*
X168839463Y-80157117D01*
X168779448Y-80012228D01*
X168748852Y-79858414D01*
X168748852Y-79701586D01*
X168779448Y-79547772D01*
X168839463Y-79402883D01*
X168926592Y-79272485D01*
X169037485Y-79161592D01*
X169167883Y-79074463D01*
X169312772Y-79014448D01*
X169466586Y-78983852D01*
X169623414Y-78983852D01*
X169777228Y-79014448D01*
G37*
G36*
X154537228Y-76474448D02*
G01*
X154682117Y-76534463D01*
X154812515Y-76621592D01*
X154923408Y-76732485D01*
X155010537Y-76862883D01*
X155070552Y-77007772D01*
X155101148Y-77161586D01*
X155101148Y-77318414D01*
X155070552Y-77472228D01*
X155010537Y-77617117D01*
X154923408Y-77747515D01*
X154812515Y-77858408D01*
X154682117Y-77945537D01*
X154537228Y-78005552D01*
X154383414Y-78036148D01*
X154226586Y-78036148D01*
X154072772Y-78005552D01*
X153927883Y-77945537D01*
X153797485Y-77858408D01*
X153686592Y-77747515D01*
X153599463Y-77617117D01*
X153539448Y-77472228D01*
X153508852Y-77318414D01*
X153508852Y-77161586D01*
X153539448Y-77007772D01*
X153599463Y-76862883D01*
X153686592Y-76732485D01*
X153797485Y-76621592D01*
X153927883Y-76534463D01*
X154072772Y-76474448D01*
X154226586Y-76443852D01*
X154383414Y-76443852D01*
X154537228Y-76474448D01*
G37*
G36*
X169777228Y-76474448D02*
G01*
X169922117Y-76534463D01*
X170052515Y-76621592D01*
X170163408Y-76732485D01*
X170250537Y-76862883D01*
X170310552Y-77007772D01*
X170341148Y-77161586D01*
X170341148Y-77318414D01*
X170310552Y-77472228D01*
X170250537Y-77617117D01*
X170163408Y-77747515D01*
X170052515Y-77858408D01*
X169922117Y-77945537D01*
X169777228Y-78005552D01*
X169623414Y-78036148D01*
X169466586Y-78036148D01*
X169312772Y-78005552D01*
X169167883Y-77945537D01*
X169037485Y-77858408D01*
X168926592Y-77747515D01*
X168839463Y-77617117D01*
X168779448Y-77472228D01*
X168748852Y-77318414D01*
X168748852Y-77161586D01*
X168779448Y-77007772D01*
X168839463Y-76862883D01*
X168926592Y-76732485D01*
X169037485Y-76621592D01*
X169167883Y-76534463D01*
X169312772Y-76474448D01*
X169466586Y-76443852D01*
X169623414Y-76443852D01*
X169777228Y-76474448D01*
G37*
G36*
X154537228Y-73934448D02*
G01*
X154682117Y-73994463D01*
X154812515Y-74081592D01*
X154923408Y-74192485D01*
X155010537Y-74322883D01*
X155070552Y-74467772D01*
X155101148Y-74621586D01*
X155101148Y-74778414D01*
X155070552Y-74932228D01*
X155010537Y-75077117D01*
X154923408Y-75207515D01*
X154812515Y-75318408D01*
X154682117Y-75405537D01*
X154537228Y-75465552D01*
X154383414Y-75496148D01*
X154226586Y-75496148D01*
X154072772Y-75465552D01*
X153927883Y-75405537D01*
X153797485Y-75318408D01*
X153686592Y-75207515D01*
X153599463Y-75077117D01*
X153539448Y-74932228D01*
X153508852Y-74778414D01*
X153508852Y-74621586D01*
X153539448Y-74467772D01*
X153599463Y-74322883D01*
X153686592Y-74192485D01*
X153797485Y-74081592D01*
X153927883Y-73994463D01*
X154072772Y-73934448D01*
X154226586Y-73903852D01*
X154383414Y-73903852D01*
X154537228Y-73934448D01*
G37*
G36*
X169777228Y-73934448D02*
G01*
X169922117Y-73994463D01*
X170052515Y-74081592D01*
X170163408Y-74192485D01*
X170250537Y-74322883D01*
X170310552Y-74467772D01*
X170341148Y-74621586D01*
X170341148Y-74778414D01*
X170310552Y-74932228D01*
X170250537Y-75077117D01*
X170163408Y-75207515D01*
X170052515Y-75318408D01*
X169922117Y-75405537D01*
X169777228Y-75465552D01*
X169623414Y-75496148D01*
X169466586Y-75496148D01*
X169312772Y-75465552D01*
X169167883Y-75405537D01*
X169037485Y-75318408D01*
X168926592Y-75207515D01*
X168839463Y-75077117D01*
X168779448Y-74932228D01*
X168748852Y-74778414D01*
X168748852Y-74621586D01*
X168779448Y-74467772D01*
X168839463Y-74322883D01*
X168926592Y-74192485D01*
X169037485Y-74081592D01*
X169167883Y-73994463D01*
X169312772Y-73934448D01*
X169466586Y-73903852D01*
X169623414Y-73903852D01*
X169777228Y-73934448D01*
G37*
G36*
X154537228Y-71394448D02*
G01*
X154682117Y-71454463D01*
X154812515Y-71541592D01*
X154923408Y-71652485D01*
X155010537Y-71782883D01*
X155070552Y-71927772D01*
X155101148Y-72081586D01*
X155101148Y-72238414D01*
X155070552Y-72392228D01*
X155010537Y-72537117D01*
X154923408Y-72667515D01*
X154812515Y-72778408D01*
X154682117Y-72865537D01*
X154537228Y-72925552D01*
X154383414Y-72956148D01*
X154226586Y-72956148D01*
X154072772Y-72925552D01*
X153927883Y-72865537D01*
X153797485Y-72778408D01*
X153686592Y-72667515D01*
X153599463Y-72537117D01*
X153539448Y-72392228D01*
X153508852Y-72238414D01*
X153508852Y-72081586D01*
X153539448Y-71927772D01*
X153599463Y-71782883D01*
X153686592Y-71652485D01*
X153797485Y-71541592D01*
X153927883Y-71454463D01*
X154072772Y-71394448D01*
X154226586Y-71363852D01*
X154383414Y-71363852D01*
X154537228Y-71394448D01*
G37*
G36*
X169777228Y-71394448D02*
G01*
X169922117Y-71454463D01*
X170052515Y-71541592D01*
X170163408Y-71652485D01*
X170250537Y-71782883D01*
X170310552Y-71927772D01*
X170341148Y-72081586D01*
X170341148Y-72238414D01*
X170310552Y-72392228D01*
X170250537Y-72537117D01*
X170163408Y-72667515D01*
X170052515Y-72778408D01*
X169922117Y-72865537D01*
X169777228Y-72925552D01*
X169623414Y-72956148D01*
X169466586Y-72956148D01*
X169312772Y-72925552D01*
X169167883Y-72865537D01*
X169037485Y-72778408D01*
X168926592Y-72667515D01*
X168839463Y-72537117D01*
X168779448Y-72392228D01*
X168748852Y-72238414D01*
X168748852Y-72081586D01*
X168779448Y-71927772D01*
X168839463Y-71782883D01*
X168926592Y-71652485D01*
X169037485Y-71541592D01*
X169167883Y-71454463D01*
X169312772Y-71394448D01*
X169466586Y-71363852D01*
X169623414Y-71363852D01*
X169777228Y-71394448D01*
G37*
G36*
X154537228Y-68854448D02*
G01*
X154682117Y-68914463D01*
X154812515Y-69001592D01*
X154923408Y-69112485D01*
X155010537Y-69242883D01*
X155070552Y-69387772D01*
X155101148Y-69541586D01*
X155101148Y-69698414D01*
X155070552Y-69852228D01*
X155010537Y-69997117D01*
X154923408Y-70127515D01*
X154812515Y-70238408D01*
X154682117Y-70325537D01*
X154537228Y-70385552D01*
X154383414Y-70416148D01*
X154226586Y-70416148D01*
X154072772Y-70385552D01*
X153927883Y-70325537D01*
X153797485Y-70238408D01*
X153686592Y-70127515D01*
X153599463Y-69997117D01*
X153539448Y-69852228D01*
X153508852Y-69698414D01*
X153508852Y-69541586D01*
X153539448Y-69387772D01*
X153599463Y-69242883D01*
X153686592Y-69112485D01*
X153797485Y-69001592D01*
X153927883Y-68914463D01*
X154072772Y-68854448D01*
X154226586Y-68823852D01*
X154383414Y-68823852D01*
X154537228Y-68854448D01*
G37*
G36*
X169777228Y-68854448D02*
G01*
X169922117Y-68914463D01*
X170052515Y-69001592D01*
X170163408Y-69112485D01*
X170250537Y-69242883D01*
X170310552Y-69387772D01*
X170341148Y-69541586D01*
X170341148Y-69698414D01*
X170310552Y-69852228D01*
X170250537Y-69997117D01*
X170163408Y-70127515D01*
X170052515Y-70238408D01*
X169922117Y-70325537D01*
X169777228Y-70385552D01*
X169623414Y-70416148D01*
X169466586Y-70416148D01*
X169312772Y-70385552D01*
X169167883Y-70325537D01*
X169037485Y-70238408D01*
X168926592Y-70127515D01*
X168839463Y-69997117D01*
X168779448Y-69852228D01*
X168748852Y-69698414D01*
X168748852Y-69541586D01*
X168779448Y-69387772D01*
X168839463Y-69242883D01*
X168926592Y-69112485D01*
X169037485Y-69001592D01*
X169167883Y-68914463D01*
X169312772Y-68854448D01*
X169466586Y-68823852D01*
X169623414Y-68823852D01*
X169777228Y-68854448D01*
G37*
G36*
X154537228Y-66314448D02*
G01*
X154682117Y-66374463D01*
X154812515Y-66461592D01*
X154923408Y-66572485D01*
X155010537Y-66702883D01*
X155070552Y-66847772D01*
X155101148Y-67001586D01*
X155101148Y-67158414D01*
X155070552Y-67312228D01*
X155010537Y-67457117D01*
X154923408Y-67587515D01*
X154812515Y-67698408D01*
X154682117Y-67785537D01*
X154537228Y-67845552D01*
X154383414Y-67876148D01*
X154226586Y-67876148D01*
X154072772Y-67845552D01*
X153927883Y-67785537D01*
X153797485Y-67698408D01*
X153686592Y-67587515D01*
X153599463Y-67457117D01*
X153539448Y-67312228D01*
X153508852Y-67158414D01*
X153508852Y-67001586D01*
X153539448Y-66847772D01*
X153599463Y-66702883D01*
X153686592Y-66572485D01*
X153797485Y-66461592D01*
X153927883Y-66374463D01*
X154072772Y-66314448D01*
X154226586Y-66283852D01*
X154383414Y-66283852D01*
X154537228Y-66314448D01*
G37*
G36*
X169777228Y-66314448D02*
G01*
X169922117Y-66374463D01*
X170052515Y-66461592D01*
X170163408Y-66572485D01*
X170250537Y-66702883D01*
X170310552Y-66847772D01*
X170341148Y-67001586D01*
X170341148Y-67158414D01*
X170310552Y-67312228D01*
X170250537Y-67457117D01*
X170163408Y-67587515D01*
X170052515Y-67698408D01*
X169922117Y-67785537D01*
X169777228Y-67845552D01*
X169623414Y-67876148D01*
X169466586Y-67876148D01*
X169312772Y-67845552D01*
X169167883Y-67785537D01*
X169037485Y-67698408D01*
X168926592Y-67587515D01*
X168839463Y-67457117D01*
X168779448Y-67312228D01*
X168748852Y-67158414D01*
X168748852Y-67001586D01*
X168779448Y-66847772D01*
X168839463Y-66702883D01*
X168926592Y-66572485D01*
X169037485Y-66461592D01*
X169167883Y-66374463D01*
X169312772Y-66314448D01*
X169466586Y-66283852D01*
X169623414Y-66283852D01*
X169777228Y-66314448D01*
G37*
G36*
X154537228Y-63774448D02*
G01*
X154682117Y-63834463D01*
X154812515Y-63921592D01*
X154923408Y-64032485D01*
X155010537Y-64162883D01*
X155070552Y-64307772D01*
X155101148Y-64461586D01*
X155101148Y-64618414D01*
X155070552Y-64772228D01*
X155010537Y-64917117D01*
X154923408Y-65047515D01*
X154812515Y-65158408D01*
X154682117Y-65245537D01*
X154537228Y-65305552D01*
X154383414Y-65336148D01*
X154226586Y-65336148D01*
X154072772Y-65305552D01*
X153927883Y-65245537D01*
X153797485Y-65158408D01*
X153686592Y-65047515D01*
X153599463Y-64917117D01*
X153539448Y-64772228D01*
X153508852Y-64618414D01*
X153508852Y-64461586D01*
X153539448Y-64307772D01*
X153599463Y-64162883D01*
X153686592Y-64032485D01*
X153797485Y-63921592D01*
X153927883Y-63834463D01*
X154072772Y-63774448D01*
X154226586Y-63743852D01*
X154383414Y-63743852D01*
X154537228Y-63774448D01*
G37*
G36*
X169777228Y-63774448D02*
G01*
X169922117Y-63834463D01*
X170052515Y-63921592D01*
X170163408Y-64032485D01*
X170250537Y-64162883D01*
X170310552Y-64307772D01*
X170341148Y-64461586D01*
X170341148Y-64618414D01*
X170310552Y-64772228D01*
X170250537Y-64917117D01*
X170163408Y-65047515D01*
X170052515Y-65158408D01*
X169922117Y-65245537D01*
X169777228Y-65305552D01*
X169623414Y-65336148D01*
X169466586Y-65336148D01*
X169312772Y-65305552D01*
X169167883Y-65245537D01*
X169037485Y-65158408D01*
X168926592Y-65047515D01*
X168839463Y-64917117D01*
X168779448Y-64772228D01*
X168748852Y-64618414D01*
X168748852Y-64461586D01*
X168779448Y-64307772D01*
X168839463Y-64162883D01*
X168926592Y-64032485D01*
X169037485Y-63921592D01*
X169167883Y-63834463D01*
X169312772Y-63774448D01*
X169466586Y-63743852D01*
X169623414Y-63743852D01*
X169777228Y-63774448D01*
G37*
G36*
X185260000Y-63770000D02*
G01*
X183720000Y-63770000D01*
X183720000Y-62230000D01*
X185260000Y-62230000D01*
X185260000Y-63770000D01*
G37*
G36*
X187253519Y-62263156D02*
G01*
X187392975Y-62320921D01*
X187518483Y-62404782D01*
X187625218Y-62511517D01*
X187709079Y-62637025D01*
X187766844Y-62776481D01*
X187796292Y-62924527D01*
X187796292Y-63075473D01*
X187766844Y-63223519D01*
X187709079Y-63362975D01*
X187625218Y-63488483D01*
X187518483Y-63595218D01*
X187392975Y-63679079D01*
X187253519Y-63736844D01*
X187105473Y-63766292D01*
X186954527Y-63766292D01*
X186806481Y-63736844D01*
X186667025Y-63679079D01*
X186541517Y-63595218D01*
X186434782Y-63488483D01*
X186350921Y-63362975D01*
X186293156Y-63223519D01*
X186263708Y-63075473D01*
X186263708Y-62924527D01*
X186293156Y-62776481D01*
X186350921Y-62637025D01*
X186434782Y-62511517D01*
X186541517Y-62404782D01*
X186667025Y-62320921D01*
X186806481Y-62263156D01*
X186954527Y-62233708D01*
X187105473Y-62233708D01*
X187253519Y-62263156D01*
G37*
G36*
X189793519Y-62263156D02*
G01*
X189932975Y-62320921D01*
X190058483Y-62404782D01*
X190165218Y-62511517D01*
X190249079Y-62637025D01*
X190306844Y-62776481D01*
X190336292Y-62924527D01*
X190336292Y-63075473D01*
X190306844Y-63223519D01*
X190249079Y-63362975D01*
X190165218Y-63488483D01*
X190058483Y-63595218D01*
X189932975Y-63679079D01*
X189793519Y-63736844D01*
X189645473Y-63766292D01*
X189494527Y-63766292D01*
X189346481Y-63736844D01*
X189207025Y-63679079D01*
X189081517Y-63595218D01*
X188974782Y-63488483D01*
X188890921Y-63362975D01*
X188833156Y-63223519D01*
X188803708Y-63075473D01*
X188803708Y-62924527D01*
X188833156Y-62776481D01*
X188890921Y-62637025D01*
X188974782Y-62511517D01*
X189081517Y-62404782D01*
X189207025Y-62320921D01*
X189346481Y-62263156D01*
X189494527Y-62233708D01*
X189645473Y-62233708D01*
X189793519Y-62263156D01*
G37*
G36*
X192333519Y-62263156D02*
G01*
X192472975Y-62320921D01*
X192598483Y-62404782D01*
X192705218Y-62511517D01*
X192789079Y-62637025D01*
X192846844Y-62776481D01*
X192876292Y-62924527D01*
X192876292Y-63075473D01*
X192846844Y-63223519D01*
X192789079Y-63362975D01*
X192705218Y-63488483D01*
X192598483Y-63595218D01*
X192472975Y-63679079D01*
X192333519Y-63736844D01*
X192185473Y-63766292D01*
X192034527Y-63766292D01*
X191886481Y-63736844D01*
X191747025Y-63679079D01*
X191621517Y-63595218D01*
X191514782Y-63488483D01*
X191430921Y-63362975D01*
X191373156Y-63223519D01*
X191343708Y-63075473D01*
X191343708Y-62924527D01*
X191373156Y-62776481D01*
X191430921Y-62637025D01*
X191514782Y-62511517D01*
X191621517Y-62404782D01*
X191747025Y-62320921D01*
X191886481Y-62263156D01*
X192034527Y-62233708D01*
X192185473Y-62233708D01*
X192333519Y-62263156D01*
G37*
G36*
X154537228Y-61234448D02*
G01*
X154682117Y-61294463D01*
X154812515Y-61381592D01*
X154923408Y-61492485D01*
X155010537Y-61622883D01*
X155070552Y-61767772D01*
X155101148Y-61921586D01*
X155101148Y-62078414D01*
X155070552Y-62232228D01*
X155010537Y-62377117D01*
X154923408Y-62507515D01*
X154812515Y-62618408D01*
X154682117Y-62705537D01*
X154537228Y-62765552D01*
X154383414Y-62796148D01*
X154226586Y-62796148D01*
X154072772Y-62765552D01*
X153927883Y-62705537D01*
X153797485Y-62618408D01*
X153686592Y-62507515D01*
X153599463Y-62377117D01*
X153539448Y-62232228D01*
X153508852Y-62078414D01*
X153508852Y-61921586D01*
X153539448Y-61767772D01*
X153599463Y-61622883D01*
X153686592Y-61492485D01*
X153797485Y-61381592D01*
X153927883Y-61294463D01*
X154072772Y-61234448D01*
X154226586Y-61203852D01*
X154383414Y-61203852D01*
X154537228Y-61234448D01*
G37*
G36*
X169777228Y-61234448D02*
G01*
X169922117Y-61294463D01*
X170052515Y-61381592D01*
X170163408Y-61492485D01*
X170250537Y-61622883D01*
X170310552Y-61767772D01*
X170341148Y-61921586D01*
X170341148Y-62078414D01*
X170310552Y-62232228D01*
X170250537Y-62377117D01*
X170163408Y-62507515D01*
X170052515Y-62618408D01*
X169922117Y-62705537D01*
X169777228Y-62765552D01*
X169623414Y-62796148D01*
X169466586Y-62796148D01*
X169312772Y-62765552D01*
X169167883Y-62705537D01*
X169037485Y-62618408D01*
X168926592Y-62507515D01*
X168839463Y-62377117D01*
X168779448Y-62232228D01*
X168748852Y-62078414D01*
X168748852Y-61921586D01*
X168779448Y-61767772D01*
X168839463Y-61622883D01*
X168926592Y-61492485D01*
X169037485Y-61381592D01*
X169167883Y-61294463D01*
X169312772Y-61234448D01*
X169466586Y-61203852D01*
X169623414Y-61203852D01*
X169777228Y-61234448D01*
G37*
M02*
