G04 #@! TF.GenerationSoftware,KiCad,Pcbnew,9.0.2*
G04 #@! TF.CreationDate,2025-07-10T23:05:19-07:00*
G04 #@! TF.ProjectId,Digi-Clock,44696769-2d43-46c6-9f63-6b2e6b696361,rev?*
G04 #@! TF.SameCoordinates,Original*
G04 #@! TF.FileFunction,Copper,L1,Top*
G04 #@! TF.FilePolarity,Positive*
%FSLAX46Y46*%
G04 Gerber Fmt 4.6, Leading zero omitted, Abs format (unit mm)*
G04 Created by KiCad (PCBNEW 9.0.2) date 2025-07-10 23:05:19*
%MOMM*%
%LPD*%
G01*
G04 APERTURE LIST*
G04 #@! TA.AperFunction,ComponentPad*
%ADD10R,1.600000X1.600000*%
G04 #@! TD*
G04 #@! TA.AperFunction,ComponentPad*
%ADD11O,1.600000X1.600000*%
G04 #@! TD*
G04 #@! TA.AperFunction,ComponentPad*
%ADD12R,1.540000X1.540000*%
G04 #@! TD*
G04 #@! TA.AperFunction,ComponentPad*
%ADD13C,1.540000*%
G04 #@! TD*
G04 #@! TA.AperFunction,ViaPad*
%ADD14C,0.700000*%
G04 #@! TD*
G04 #@! TA.AperFunction,Conductor*
%ADD15C,0.400000*%
G04 #@! TD*
G04 #@! TA.AperFunction,Conductor*
%ADD16C,0.200000*%
G04 #@! TD*
G04 APERTURE END LIST*
D10*
X169545000Y-97560000D03*
D11*
X169545000Y-95020000D03*
X169545000Y-92480000D03*
X169545000Y-89940000D03*
X169545000Y-87400000D03*
X169545000Y-84860000D03*
X169545000Y-82320000D03*
X169545000Y-79780000D03*
X169545000Y-77240000D03*
X169545000Y-74700000D03*
X169545000Y-72160000D03*
X169545000Y-69620000D03*
X169545000Y-67080000D03*
X169545000Y-64540000D03*
X169545000Y-62000000D03*
X154305000Y-62000000D03*
X154305000Y-64540000D03*
X154305000Y-67080000D03*
X154305000Y-69620000D03*
X154305000Y-72160000D03*
X154305000Y-74700000D03*
X154305000Y-77240000D03*
X154305000Y-79780000D03*
X154305000Y-82320000D03*
X154305000Y-84860000D03*
X154305000Y-87400000D03*
X154305000Y-89940000D03*
X154305000Y-92480000D03*
X154305000Y-95020000D03*
X154305000Y-97560000D03*
D12*
X144790000Y-97000000D03*
D13*
X142250000Y-97000000D03*
X139710000Y-97000000D03*
X137170000Y-97000000D03*
X134630000Y-97000000D03*
X132090000Y-97000000D03*
D12*
X184490000Y-63000000D03*
D13*
X187030000Y-63000000D03*
X189570000Y-63000000D03*
X192110000Y-63000000D03*
D14*
X151180800Y-82448400D03*
X151079200Y-79756000D03*
D15*
X134620000Y-66141600D02*
X134620000Y-96670000D01*
X134620000Y-96670000D02*
X134290000Y-97000000D01*
X136221600Y-64540000D02*
X134620000Y-66141600D01*
X154305000Y-64540000D02*
X136221600Y-64540000D01*
D16*
X154305000Y-82320000D02*
X151309200Y-82320000D01*
X139700000Y-82550000D02*
X139700000Y-96670000D01*
X151180800Y-82448400D02*
X150825200Y-82092800D01*
X151309200Y-82320000D02*
X151180800Y-82448400D01*
X140157200Y-82092800D02*
X139700000Y-82550000D01*
X139700000Y-96670000D02*
X139370000Y-97000000D01*
X150825200Y-82092800D02*
X140157200Y-82092800D01*
X150926800Y-79603600D02*
X137668000Y-79603600D01*
X154305000Y-79780000D02*
X151103200Y-79780000D01*
X137668000Y-79603600D02*
X137160000Y-80111600D01*
X137160000Y-80111600D02*
X137160000Y-96670000D01*
X151103200Y-79780000D02*
X151079200Y-79756000D01*
X151079200Y-79756000D02*
X150926800Y-79603600D01*
X137160000Y-96670000D02*
X136830000Y-97000000D01*
G04 #@! TA.AperFunction,Conductor*
G36*
X203004418Y-53250816D02*
G01*
X203240140Y-53267674D01*
X203257641Y-53270191D01*
X203484229Y-53319482D01*
X203501188Y-53324461D01*
X203638672Y-53375740D01*
X203718462Y-53405501D01*
X203734555Y-53412851D01*
X203938068Y-53523977D01*
X203952951Y-53533542D01*
X204138579Y-53672501D01*
X204151950Y-53684087D01*
X204315912Y-53848049D01*
X204327498Y-53861420D01*
X204466457Y-54047048D01*
X204476022Y-54061931D01*
X204587148Y-54265444D01*
X204594498Y-54281537D01*
X204675535Y-54498803D01*
X204680519Y-54515779D01*
X204729807Y-54742352D01*
X204732325Y-54759864D01*
X204749184Y-54995581D01*
X204749500Y-55004427D01*
X204749500Y-102995572D01*
X204749184Y-103004418D01*
X204732325Y-103240135D01*
X204729807Y-103257647D01*
X204680519Y-103484220D01*
X204675535Y-103501196D01*
X204594498Y-103718462D01*
X204587148Y-103734555D01*
X204476022Y-103938068D01*
X204466457Y-103952951D01*
X204327498Y-104138579D01*
X204315912Y-104151950D01*
X204151950Y-104315912D01*
X204138579Y-104327498D01*
X203952951Y-104466457D01*
X203938068Y-104476022D01*
X203734555Y-104587148D01*
X203718462Y-104594498D01*
X203501196Y-104675535D01*
X203484220Y-104680519D01*
X203257647Y-104729807D01*
X203240135Y-104732325D01*
X203004418Y-104749184D01*
X202995572Y-104749500D01*
X127004428Y-104749500D01*
X126995582Y-104749184D01*
X126759864Y-104732325D01*
X126742352Y-104729807D01*
X126515779Y-104680519D01*
X126498803Y-104675535D01*
X126281537Y-104594498D01*
X126265444Y-104587148D01*
X126061931Y-104476022D01*
X126047048Y-104466457D01*
X125861420Y-104327498D01*
X125848049Y-104315912D01*
X125684087Y-104151950D01*
X125672501Y-104138579D01*
X125533542Y-103952951D01*
X125523977Y-103938068D01*
X125412851Y-103734555D01*
X125405501Y-103718462D01*
X125375740Y-103638672D01*
X125324461Y-103501188D01*
X125319482Y-103484229D01*
X125270191Y-103257641D01*
X125267674Y-103240135D01*
X125261263Y-103150500D01*
X125250816Y-103004418D01*
X125250500Y-102995572D01*
X125250500Y-101801577D01*
X126749500Y-101801577D01*
X126749500Y-101998422D01*
X126780290Y-102192826D01*
X126841117Y-102380029D01*
X126891735Y-102479371D01*
X126930476Y-102555405D01*
X127046172Y-102714646D01*
X127185354Y-102853828D01*
X127344595Y-102969524D01*
X127404408Y-103000000D01*
X127519970Y-103058882D01*
X127519972Y-103058882D01*
X127519975Y-103058884D01*
X127620317Y-103091487D01*
X127707173Y-103119709D01*
X127901578Y-103150500D01*
X127901583Y-103150500D01*
X128098422Y-103150500D01*
X128292826Y-103119709D01*
X128480025Y-103058884D01*
X128655405Y-102969524D01*
X128814646Y-102853828D01*
X128953828Y-102714646D01*
X129069524Y-102555405D01*
X129158884Y-102380025D01*
X129219709Y-102192826D01*
X129239238Y-102069524D01*
X129250500Y-101998422D01*
X129250500Y-101801577D01*
X129219709Y-101607173D01*
X129178397Y-101480029D01*
X129158884Y-101419975D01*
X129158882Y-101419972D01*
X129158882Y-101419970D01*
X129069523Y-101244594D01*
X129065459Y-101239000D01*
X128953828Y-101085354D01*
X128814646Y-100946172D01*
X128753267Y-100901577D01*
X199749500Y-100901577D01*
X199749500Y-101098422D01*
X199780290Y-101292826D01*
X199841117Y-101480029D01*
X199905901Y-101607174D01*
X199930476Y-101655405D01*
X200046172Y-101814646D01*
X200185354Y-101953828D01*
X200344595Y-102069524D01*
X200427455Y-102111743D01*
X200519970Y-102158882D01*
X200519972Y-102158882D01*
X200519975Y-102158884D01*
X200620317Y-102191487D01*
X200707173Y-102219709D01*
X200901578Y-102250500D01*
X200901583Y-102250500D01*
X201098422Y-102250500D01*
X201292826Y-102219709D01*
X201480025Y-102158884D01*
X201655405Y-102069524D01*
X201814646Y-101953828D01*
X201953828Y-101814646D01*
X202069524Y-101655405D01*
X202158884Y-101480025D01*
X202219709Y-101292826D01*
X202231629Y-101217568D01*
X202250500Y-101098422D01*
X202250500Y-100901577D01*
X202219709Y-100707173D01*
X202158882Y-100519970D01*
X202069523Y-100344594D01*
X202024607Y-100282773D01*
X201953828Y-100185354D01*
X201814646Y-100046172D01*
X201655405Y-99930476D01*
X201480029Y-99841117D01*
X201292826Y-99780290D01*
X201098422Y-99749500D01*
X201098417Y-99749500D01*
X200901583Y-99749500D01*
X200901578Y-99749500D01*
X200707173Y-99780290D01*
X200519970Y-99841117D01*
X200344594Y-99930476D01*
X200253741Y-99996485D01*
X200185354Y-100046172D01*
X200185352Y-100046174D01*
X200185351Y-100046174D01*
X200046174Y-100185351D01*
X200046174Y-100185352D01*
X200046172Y-100185354D01*
X199996485Y-100253741D01*
X199930476Y-100344594D01*
X199841117Y-100519970D01*
X199780290Y-100707173D01*
X199749500Y-100901577D01*
X128753267Y-100901577D01*
X128655405Y-100830476D01*
X128480029Y-100741117D01*
X128292826Y-100680290D01*
X128098422Y-100649500D01*
X128098417Y-100649500D01*
X127901583Y-100649500D01*
X127901578Y-100649500D01*
X127707173Y-100680290D01*
X127519970Y-100741117D01*
X127344594Y-100830476D01*
X127253741Y-100896485D01*
X127185354Y-100946172D01*
X127185352Y-100946174D01*
X127185351Y-100946174D01*
X127046174Y-101085351D01*
X127046174Y-101085352D01*
X127046172Y-101085354D01*
X126996485Y-101153741D01*
X126930476Y-101244594D01*
X126841117Y-101419970D01*
X126780290Y-101607173D01*
X126749500Y-101801577D01*
X125250500Y-101801577D01*
X125250500Y-96900049D01*
X130820000Y-96900049D01*
X130820000Y-97099950D01*
X130851272Y-97297393D01*
X130913043Y-97487508D01*
X131003798Y-97665623D01*
X131003799Y-97665625D01*
X131032001Y-97704443D01*
X131032002Y-97704443D01*
X131690000Y-97046445D01*
X131690000Y-97052661D01*
X131717259Y-97154394D01*
X131769920Y-97245606D01*
X131844394Y-97320080D01*
X131935606Y-97372741D01*
X132037339Y-97400000D01*
X132043553Y-97400000D01*
X131385555Y-98057995D01*
X131385555Y-98057996D01*
X131424378Y-98086202D01*
X131602491Y-98176956D01*
X131792606Y-98238727D01*
X131990050Y-98270000D01*
X132189950Y-98270000D01*
X132387393Y-98238727D01*
X132577508Y-98176956D01*
X132755617Y-98086204D01*
X132755630Y-98086196D01*
X132794443Y-98057997D01*
X132794444Y-98057996D01*
X132136447Y-97400000D01*
X132142661Y-97400000D01*
X132244394Y-97372741D01*
X132335606Y-97320080D01*
X132410080Y-97245606D01*
X132462741Y-97154394D01*
X132490000Y-97052661D01*
X132490000Y-97046448D01*
X133147996Y-97704444D01*
X133147997Y-97704443D01*
X133176196Y-97665630D01*
X133176204Y-97665617D01*
X133249234Y-97522290D01*
X133297209Y-97471494D01*
X133365030Y-97454699D01*
X133431165Y-97477236D01*
X133470204Y-97522290D01*
X133543371Y-97665887D01*
X133660917Y-97827675D01*
X133802325Y-97969083D01*
X133964113Y-98086629D01*
X134141388Y-98176956D01*
X134142299Y-98177420D01*
X134237393Y-98208317D01*
X134332490Y-98239216D01*
X134530009Y-98270500D01*
X134530010Y-98270500D01*
X134729990Y-98270500D01*
X134729991Y-98270500D01*
X134927510Y-98239216D01*
X135117703Y-98177419D01*
X135295887Y-98086629D01*
X135457675Y-97969083D01*
X135599083Y-97827675D01*
X135716629Y-97665887D01*
X135789515Y-97522840D01*
X135837490Y-97472045D01*
X135905311Y-97455250D01*
X135971446Y-97477788D01*
X136010484Y-97522840D01*
X136083371Y-97665887D01*
X136200917Y-97827675D01*
X136342325Y-97969083D01*
X136504113Y-98086629D01*
X136681388Y-98176956D01*
X136682299Y-98177420D01*
X136777393Y-98208317D01*
X136872490Y-98239216D01*
X137070009Y-98270500D01*
X137070010Y-98270500D01*
X137269990Y-98270500D01*
X137269991Y-98270500D01*
X137467510Y-98239216D01*
X137657703Y-98177419D01*
X137835887Y-98086629D01*
X137997675Y-97969083D01*
X138139083Y-97827675D01*
X138256629Y-97665887D01*
X138329515Y-97522840D01*
X138377490Y-97472045D01*
X138445311Y-97455250D01*
X138511446Y-97477788D01*
X138550484Y-97522840D01*
X138623371Y-97665887D01*
X138740917Y-97827675D01*
X138882325Y-97969083D01*
X139044113Y-98086629D01*
X139221388Y-98176956D01*
X139222299Y-98177420D01*
X139317393Y-98208317D01*
X139412490Y-98239216D01*
X139610009Y-98270500D01*
X139610010Y-98270500D01*
X139809990Y-98270500D01*
X139809991Y-98270500D01*
X140007510Y-98239216D01*
X140197703Y-98177419D01*
X140375887Y-98086629D01*
X140537675Y-97969083D01*
X140679083Y-97827675D01*
X140796629Y-97665887D01*
X140869515Y-97522840D01*
X140917490Y-97472045D01*
X140985311Y-97455250D01*
X141051446Y-97477788D01*
X141090484Y-97522840D01*
X141163371Y-97665887D01*
X141280917Y-97827675D01*
X141422325Y-97969083D01*
X141584113Y-98086629D01*
X141761388Y-98176956D01*
X141762299Y-98177420D01*
X141857393Y-98208317D01*
X141952490Y-98239216D01*
X142150009Y-98270500D01*
X142150010Y-98270500D01*
X142349990Y-98270500D01*
X142349991Y-98270500D01*
X142547510Y-98239216D01*
X142737703Y-98177419D01*
X142915887Y-98086629D01*
X143077675Y-97969083D01*
X143219083Y-97827675D01*
X143295183Y-97722931D01*
X143350511Y-97680267D01*
X143420125Y-97674288D01*
X143481920Y-97706893D01*
X143516277Y-97767732D01*
X143519500Y-97795813D01*
X143519500Y-97817867D01*
X143519501Y-97817876D01*
X143525908Y-97877483D01*
X143576202Y-98012328D01*
X143576206Y-98012335D01*
X143662452Y-98127544D01*
X143662455Y-98127547D01*
X143777664Y-98213793D01*
X143777671Y-98213797D01*
X143912517Y-98264091D01*
X143912516Y-98264091D01*
X143919444Y-98264835D01*
X143972127Y-98270500D01*
X145607872Y-98270499D01*
X145667483Y-98264091D01*
X145802331Y-98213796D01*
X145917546Y-98127546D01*
X146003796Y-98012331D01*
X146054091Y-97877483D01*
X146060500Y-97817873D01*
X146060499Y-97000000D01*
X146060499Y-96182129D01*
X146060498Y-96182123D01*
X146060497Y-96182116D01*
X146054091Y-96122517D01*
X146022691Y-96038330D01*
X146003797Y-95987671D01*
X146003793Y-95987664D01*
X145917547Y-95872455D01*
X145917544Y-95872452D01*
X145802335Y-95786206D01*
X145802328Y-95786202D01*
X145667482Y-95735908D01*
X145667483Y-95735908D01*
X145607883Y-95729501D01*
X145607881Y-95729500D01*
X145607873Y-95729500D01*
X145607864Y-95729500D01*
X143972129Y-95729500D01*
X143972123Y-95729501D01*
X143912516Y-95735908D01*
X143777671Y-95786202D01*
X143777664Y-95786206D01*
X143662455Y-95872452D01*
X143662452Y-95872455D01*
X143576206Y-95987664D01*
X143576202Y-95987671D01*
X143525908Y-96122517D01*
X143521527Y-96163273D01*
X143519501Y-96182123D01*
X143519500Y-96182135D01*
X143519500Y-96204180D01*
X143499815Y-96271219D01*
X143447011Y-96316974D01*
X143377853Y-96326918D01*
X143314297Y-96297893D01*
X143295182Y-96277066D01*
X143282419Y-96259500D01*
X143219083Y-96172325D01*
X143077675Y-96030917D01*
X142915887Y-95913371D01*
X142840500Y-95874959D01*
X142737700Y-95822579D01*
X142547511Y-95760784D01*
X142448750Y-95745142D01*
X142349991Y-95729500D01*
X142150009Y-95729500D01*
X142084169Y-95739928D01*
X141952488Y-95760784D01*
X141762299Y-95822579D01*
X141584112Y-95913371D01*
X141508389Y-95968388D01*
X141422325Y-96030917D01*
X141422323Y-96030919D01*
X141422322Y-96030919D01*
X141280919Y-96172322D01*
X141280919Y-96172323D01*
X141280917Y-96172325D01*
X141273795Y-96182128D01*
X141163367Y-96334117D01*
X141090484Y-96477158D01*
X141042510Y-96527954D01*
X140974689Y-96544749D01*
X140908554Y-96522211D01*
X140869516Y-96477158D01*
X140796632Y-96334117D01*
X140783616Y-96316202D01*
X140679083Y-96172325D01*
X140537675Y-96030917D01*
X140399575Y-95930581D01*
X140375883Y-95913368D01*
X140368198Y-95909452D01*
X140317405Y-95861475D01*
X140300500Y-95798971D01*
X140300500Y-82850097D01*
X140309144Y-82820656D01*
X140315668Y-82790670D01*
X140319422Y-82785654D01*
X140320185Y-82783058D01*
X140336819Y-82762416D01*
X140369616Y-82729619D01*
X140430939Y-82696134D01*
X140457297Y-82693300D01*
X150278812Y-82693300D01*
X150345851Y-82712985D01*
X150391606Y-82765789D01*
X150393373Y-82769847D01*
X150427095Y-82851260D01*
X150520173Y-82990562D01*
X150638637Y-83109026D01*
X150725721Y-83167213D01*
X150777937Y-83202103D01*
X150932718Y-83266216D01*
X151097028Y-83298899D01*
X151097032Y-83298900D01*
X151097033Y-83298900D01*
X151264568Y-83298900D01*
X151264569Y-83298899D01*
X151428882Y-83266216D01*
X151583663Y-83202103D01*
X151722962Y-83109026D01*
X151841426Y-82990562D01*
X151843001Y-82988205D01*
X151851419Y-82975608D01*
X151905032Y-82930803D01*
X151954520Y-82920500D01*
X153075398Y-82920500D01*
X153142437Y-82940185D01*
X153185883Y-82988205D01*
X153192715Y-83001614D01*
X153313028Y-83167213D01*
X153457786Y-83311971D01*
X153612749Y-83424556D01*
X153623390Y-83432287D01*
X153714840Y-83478883D01*
X153716080Y-83479515D01*
X153766876Y-83527490D01*
X153783671Y-83595311D01*
X153761134Y-83661446D01*
X153716080Y-83700485D01*
X153623386Y-83747715D01*
X153457786Y-83868028D01*
X153313028Y-84012786D01*
X153192715Y-84178386D01*
X153099781Y-84360776D01*
X153036522Y-84555465D01*
X153004500Y-84757648D01*
X153004500Y-84962351D01*
X153036522Y-85164534D01*
X153099781Y-85359223D01*
X153192715Y-85541613D01*
X153313028Y-85707213D01*
X153457786Y-85851971D01*
X153612749Y-85964556D01*
X153623390Y-85972287D01*
X153714840Y-86018883D01*
X153716080Y-86019515D01*
X153766876Y-86067490D01*
X153783671Y-86135311D01*
X153761134Y-86201446D01*
X153716080Y-86240485D01*
X153623386Y-86287715D01*
X153457786Y-86408028D01*
X153313028Y-86552786D01*
X153192715Y-86718386D01*
X153099781Y-86900776D01*
X153036522Y-87095465D01*
X153004500Y-87297648D01*
X153004500Y-87502351D01*
X153036522Y-87704534D01*
X153099781Y-87899223D01*
X153192715Y-88081613D01*
X153313028Y-88247213D01*
X153457786Y-88391971D01*
X153612749Y-88504556D01*
X153623390Y-88512287D01*
X153714840Y-88558883D01*
X153716080Y-88559515D01*
X153766876Y-88607490D01*
X153783671Y-88675311D01*
X153761134Y-88741446D01*
X153716080Y-88780485D01*
X153623386Y-88827715D01*
X153457786Y-88948028D01*
X153313028Y-89092786D01*
X153192715Y-89258386D01*
X153099781Y-89440776D01*
X153036522Y-89635465D01*
X153004500Y-89837648D01*
X153004500Y-90042351D01*
X153036522Y-90244534D01*
X153099781Y-90439223D01*
X153192715Y-90621613D01*
X153313028Y-90787213D01*
X153457786Y-90931971D01*
X153612749Y-91044556D01*
X153623390Y-91052287D01*
X153714840Y-91098883D01*
X153716080Y-91099515D01*
X153766876Y-91147490D01*
X153783671Y-91215311D01*
X153761134Y-91281446D01*
X153716080Y-91320485D01*
X153623386Y-91367715D01*
X153457786Y-91488028D01*
X153313028Y-91632786D01*
X153192715Y-91798386D01*
X153099781Y-91980776D01*
X153036522Y-92175465D01*
X153004500Y-92377648D01*
X153004500Y-92582351D01*
X153036522Y-92784534D01*
X153099781Y-92979223D01*
X153192715Y-93161613D01*
X153313028Y-93327213D01*
X153457786Y-93471971D01*
X153612749Y-93584556D01*
X153623390Y-93592287D01*
X153695424Y-93628990D01*
X153716629Y-93639795D01*
X153767425Y-93687770D01*
X153784220Y-93755591D01*
X153761682Y-93821726D01*
X153716629Y-93860765D01*
X153623650Y-93908140D01*
X153458105Y-94028417D01*
X153458104Y-94028417D01*
X153313417Y-94173104D01*
X153313417Y-94173105D01*
X153193140Y-94338650D01*
X153100244Y-94520970D01*
X153037009Y-94715586D01*
X153028391Y-94770000D01*
X153871988Y-94770000D01*
X153839075Y-94827007D01*
X153805000Y-94954174D01*
X153805000Y-95085826D01*
X153839075Y-95212993D01*
X153871988Y-95270000D01*
X153028391Y-95270000D01*
X153037009Y-95324413D01*
X153100244Y-95519029D01*
X153193140Y-95701349D01*
X153313417Y-95866894D01*
X153313417Y-95866895D01*
X153458104Y-96011582D01*
X153623652Y-96131861D01*
X153716628Y-96179234D01*
X153767425Y-96227208D01*
X153784220Y-96295029D01*
X153761683Y-96361164D01*
X153716630Y-96400203D01*
X153623388Y-96447713D01*
X153457786Y-96568028D01*
X153313028Y-96712786D01*
X153192715Y-96878386D01*
X153099781Y-97060776D01*
X153036522Y-97255465D01*
X153005272Y-97452776D01*
X153004500Y-97457648D01*
X153004500Y-97662352D01*
X153005019Y-97665630D01*
X153036522Y-97864534D01*
X153099781Y-98059223D01*
X153163691Y-98184653D01*
X153191493Y-98239216D01*
X153192715Y-98241613D01*
X153313028Y-98407213D01*
X153457786Y-98551971D01*
X153612749Y-98664556D01*
X153623390Y-98672287D01*
X153712212Y-98717544D01*
X153805776Y-98765218D01*
X153805778Y-98765218D01*
X153805781Y-98765220D01*
X153910137Y-98799127D01*
X154000465Y-98828477D01*
X154101557Y-98844488D01*
X154202648Y-98860500D01*
X154202649Y-98860500D01*
X154407351Y-98860500D01*
X154407352Y-98860500D01*
X154609534Y-98828477D01*
X154804219Y-98765220D01*
X154986610Y-98672287D01*
X155082901Y-98602328D01*
X155152213Y-98551971D01*
X155152215Y-98551968D01*
X155152219Y-98551966D01*
X155296966Y-98407219D01*
X155296968Y-98407215D01*
X155296971Y-98407213D01*
X155396298Y-98270499D01*
X155417287Y-98241610D01*
X155510220Y-98059219D01*
X155573477Y-97864534D01*
X155605500Y-97662352D01*
X155605500Y-97457648D01*
X155573477Y-97255466D01*
X155570273Y-97245606D01*
X155525010Y-97106301D01*
X155510220Y-97060781D01*
X155510218Y-97060778D01*
X155510218Y-97060776D01*
X155452418Y-96947339D01*
X155417287Y-96878390D01*
X155393468Y-96845606D01*
X155296971Y-96712786D01*
X155152213Y-96568028D01*
X154986611Y-96447713D01*
X154893369Y-96400203D01*
X154842574Y-96352229D01*
X154825779Y-96284407D01*
X154848317Y-96218273D01*
X154893371Y-96179234D01*
X154986347Y-96131861D01*
X155151894Y-96011582D01*
X155151895Y-96011582D01*
X155296582Y-95866895D01*
X155296582Y-95866894D01*
X155416859Y-95701349D01*
X155509755Y-95519029D01*
X155572990Y-95324413D01*
X155581609Y-95270000D01*
X154738012Y-95270000D01*
X154770925Y-95212993D01*
X154805000Y-95085826D01*
X154805000Y-94954174D01*
X154770925Y-94827007D01*
X154738012Y-94770000D01*
X155581609Y-94770000D01*
X155572990Y-94715586D01*
X155509755Y-94520970D01*
X155416859Y-94338650D01*
X155296582Y-94173105D01*
X155296582Y-94173104D01*
X155151895Y-94028417D01*
X154986349Y-93908140D01*
X154893370Y-93860765D01*
X154842574Y-93812790D01*
X154825779Y-93744969D01*
X154848316Y-93678835D01*
X154893370Y-93639795D01*
X154893920Y-93639515D01*
X154986610Y-93592287D01*
X155007770Y-93576913D01*
X155152213Y-93471971D01*
X155152215Y-93471968D01*
X155152219Y-93471966D01*
X155296966Y-93327219D01*
X155296968Y-93327215D01*
X155296971Y-93327213D01*
X155349732Y-93254590D01*
X155417287Y-93161610D01*
X155510220Y-92979219D01*
X155573477Y-92784534D01*
X155605500Y-92582352D01*
X155605500Y-92377648D01*
X155573477Y-92175466D01*
X155510220Y-91980781D01*
X155510218Y-91980778D01*
X155510218Y-91980776D01*
X155476503Y-91914607D01*
X155417287Y-91798390D01*
X155409556Y-91787749D01*
X155296971Y-91632786D01*
X155152213Y-91488028D01*
X154986614Y-91367715D01*
X154980006Y-91364348D01*
X154893917Y-91320483D01*
X154843123Y-91272511D01*
X154826328Y-91204690D01*
X154848865Y-91138555D01*
X154893917Y-91099516D01*
X154986610Y-91052287D01*
X155007770Y-91036913D01*
X155152213Y-90931971D01*
X155152215Y-90931968D01*
X155152219Y-90931966D01*
X155296966Y-90787219D01*
X155296968Y-90787215D01*
X155296971Y-90787213D01*
X155349732Y-90714590D01*
X155417287Y-90621610D01*
X155510220Y-90439219D01*
X155573477Y-90244534D01*
X155605500Y-90042352D01*
X155605500Y-89837648D01*
X155591144Y-89747007D01*
X155573477Y-89635465D01*
X155510218Y-89440776D01*
X155417419Y-89258650D01*
X155417287Y-89258390D01*
X155409556Y-89247749D01*
X155296971Y-89092786D01*
X155152213Y-88948028D01*
X154986614Y-88827715D01*
X154980006Y-88824348D01*
X154893917Y-88780483D01*
X154843123Y-88732511D01*
X154826328Y-88664690D01*
X154848865Y-88598555D01*
X154893917Y-88559516D01*
X154986610Y-88512287D01*
X155007770Y-88496913D01*
X155152213Y-88391971D01*
X155152215Y-88391968D01*
X155152219Y-88391966D01*
X155296966Y-88247219D01*
X155296968Y-88247215D01*
X155296971Y-88247213D01*
X155349732Y-88174590D01*
X155417287Y-88081610D01*
X155510220Y-87899219D01*
X155573477Y-87704534D01*
X155605500Y-87502352D01*
X155605500Y-87297648D01*
X155573477Y-87095466D01*
X155510220Y-86900781D01*
X155510218Y-86900778D01*
X155510218Y-86900776D01*
X155476503Y-86834607D01*
X155417287Y-86718390D01*
X155409556Y-86707749D01*
X155296971Y-86552786D01*
X155152213Y-86408028D01*
X154986614Y-86287715D01*
X154980006Y-86284348D01*
X154893917Y-86240483D01*
X154843123Y-86192511D01*
X154826328Y-86124690D01*
X154848865Y-86058555D01*
X154893917Y-86019516D01*
X154986610Y-85972287D01*
X155007770Y-85956913D01*
X155152213Y-85851971D01*
X155152215Y-85851968D01*
X155152219Y-85851966D01*
X155296966Y-85707219D01*
X155296968Y-85707215D01*
X155296971Y-85707213D01*
X155349732Y-85634590D01*
X155417287Y-85541610D01*
X155510220Y-85359219D01*
X155573477Y-85164534D01*
X155605500Y-84962352D01*
X155605500Y-84757648D01*
X155573477Y-84555466D01*
X155510220Y-84360781D01*
X155510218Y-84360778D01*
X155510218Y-84360776D01*
X155476503Y-84294607D01*
X155417287Y-84178390D01*
X155409556Y-84167749D01*
X155296971Y-84012786D01*
X155152213Y-83868028D01*
X154986614Y-83747715D01*
X154980006Y-83744348D01*
X154893917Y-83700483D01*
X154843123Y-83652511D01*
X154826328Y-83584690D01*
X154848865Y-83518555D01*
X154893917Y-83479516D01*
X154986610Y-83432287D01*
X155007770Y-83416913D01*
X155152213Y-83311971D01*
X155152215Y-83311968D01*
X155152219Y-83311966D01*
X155296966Y-83167219D01*
X155296968Y-83167215D01*
X155296971Y-83167213D01*
X155349732Y-83094590D01*
X155417287Y-83001610D01*
X155510220Y-82819219D01*
X155573477Y-82624534D01*
X155605500Y-82422352D01*
X155605500Y-82217648D01*
X155573477Y-82015466D01*
X155510220Y-81820781D01*
X155510218Y-81820778D01*
X155510218Y-81820776D01*
X155460950Y-81724084D01*
X155417287Y-81638390D01*
X155398317Y-81612280D01*
X155296971Y-81472786D01*
X155152213Y-81328028D01*
X154986614Y-81207715D01*
X154980006Y-81204348D01*
X154893917Y-81160483D01*
X154843123Y-81112511D01*
X154826328Y-81044690D01*
X154848865Y-80978555D01*
X154893917Y-80939516D01*
X154986610Y-80892287D01*
X155007770Y-80876913D01*
X155152213Y-80771971D01*
X155152215Y-80771968D01*
X155152219Y-80771966D01*
X155296966Y-80627219D01*
X155296968Y-80627215D01*
X155296971Y-80627213D01*
X155382345Y-80509704D01*
X155417287Y-80461610D01*
X155510220Y-80279219D01*
X155573477Y-80084534D01*
X155605500Y-79882352D01*
X155605500Y-79677648D01*
X155573477Y-79475466D01*
X155510220Y-79280781D01*
X155510218Y-79280778D01*
X155510218Y-79280776D01*
X155476503Y-79214607D01*
X155417287Y-79098390D01*
X155377790Y-79044026D01*
X155296971Y-78932786D01*
X155152213Y-78788028D01*
X154986614Y-78667715D01*
X154980006Y-78664348D01*
X154893917Y-78620483D01*
X154843123Y-78572511D01*
X154826328Y-78504690D01*
X154848865Y-78438555D01*
X154893917Y-78399516D01*
X154986610Y-78352287D01*
X155007770Y-78336913D01*
X155152213Y-78231971D01*
X155152215Y-78231968D01*
X155152219Y-78231966D01*
X155296966Y-78087219D01*
X155296968Y-78087215D01*
X155296971Y-78087213D01*
X155349732Y-78014590D01*
X155417287Y-77921610D01*
X155510220Y-77739219D01*
X155573477Y-77544534D01*
X155605500Y-77342352D01*
X155605500Y-77137648D01*
X155573477Y-76935466D01*
X155510220Y-76740781D01*
X155510218Y-76740778D01*
X155510218Y-76740776D01*
X155476503Y-76674607D01*
X155417287Y-76558390D01*
X155409556Y-76547749D01*
X155296971Y-76392786D01*
X155152213Y-76248028D01*
X154986614Y-76127715D01*
X154980006Y-76124348D01*
X154893917Y-76080483D01*
X154843123Y-76032511D01*
X154826328Y-75964690D01*
X154848865Y-75898555D01*
X154893917Y-75859516D01*
X154986610Y-75812287D01*
X155007770Y-75796913D01*
X155152213Y-75691971D01*
X155152215Y-75691968D01*
X155152219Y-75691966D01*
X155296966Y-75547219D01*
X155296968Y-75547215D01*
X155296971Y-75547213D01*
X155349732Y-75474590D01*
X155417287Y-75381610D01*
X155510220Y-75199219D01*
X155573477Y-75004534D01*
X155605500Y-74802352D01*
X155605500Y-74597648D01*
X155573477Y-74395466D01*
X155510220Y-74200781D01*
X155510218Y-74200778D01*
X155510218Y-74200776D01*
X155476503Y-74134607D01*
X155417287Y-74018390D01*
X155409556Y-74007749D01*
X155296971Y-73852786D01*
X155152213Y-73708028D01*
X154986614Y-73587715D01*
X154980006Y-73584348D01*
X154893917Y-73540483D01*
X154843123Y-73492511D01*
X154826328Y-73424690D01*
X154848865Y-73358555D01*
X154893917Y-73319516D01*
X154986610Y-73272287D01*
X155007770Y-73256913D01*
X155152213Y-73151971D01*
X155152215Y-73151968D01*
X155152219Y-73151966D01*
X155296966Y-73007219D01*
X155296968Y-73007215D01*
X155296971Y-73007213D01*
X155349732Y-72934590D01*
X155417287Y-72841610D01*
X155510220Y-72659219D01*
X155573477Y-72464534D01*
X155605500Y-72262352D01*
X155605500Y-72057648D01*
X155573477Y-71855466D01*
X155510220Y-71660781D01*
X155510218Y-71660778D01*
X155510218Y-71660776D01*
X155476503Y-71594607D01*
X155417287Y-71478390D01*
X155409556Y-71467749D01*
X155296971Y-71312786D01*
X155152213Y-71168028D01*
X154986614Y-71047715D01*
X154980006Y-71044348D01*
X154893917Y-71000483D01*
X154843123Y-70952511D01*
X154826328Y-70884690D01*
X154848865Y-70818555D01*
X154893917Y-70779516D01*
X154986610Y-70732287D01*
X155007770Y-70716913D01*
X155152213Y-70611971D01*
X155152215Y-70611968D01*
X155152219Y-70611966D01*
X155296966Y-70467219D01*
X155296968Y-70467215D01*
X155296971Y-70467213D01*
X155349732Y-70394590D01*
X155417287Y-70301610D01*
X155510220Y-70119219D01*
X155573477Y-69924534D01*
X155605500Y-69722352D01*
X155605500Y-69517648D01*
X155573477Y-69315466D01*
X155510220Y-69120781D01*
X155510218Y-69120778D01*
X155510218Y-69120776D01*
X155476503Y-69054607D01*
X155417287Y-68938390D01*
X155409556Y-68927749D01*
X155296971Y-68772786D01*
X155152213Y-68628028D01*
X154986614Y-68507715D01*
X154980006Y-68504348D01*
X154893917Y-68460483D01*
X154843123Y-68412511D01*
X154826328Y-68344690D01*
X154848865Y-68278555D01*
X154893917Y-68239516D01*
X154986610Y-68192287D01*
X155007770Y-68176913D01*
X155152213Y-68071971D01*
X155152215Y-68071968D01*
X155152219Y-68071966D01*
X155296966Y-67927219D01*
X155296968Y-67927215D01*
X155296971Y-67927213D01*
X155349732Y-67854590D01*
X155417287Y-67761610D01*
X155510220Y-67579219D01*
X155573477Y-67384534D01*
X155605500Y-67182352D01*
X155605500Y-66977648D01*
X155573477Y-66775466D01*
X155510220Y-66580781D01*
X155510218Y-66580778D01*
X155510218Y-66580776D01*
X155460458Y-66483118D01*
X155417287Y-66398390D01*
X155409556Y-66387749D01*
X155296971Y-66232786D01*
X155152213Y-66088028D01*
X154986614Y-65967715D01*
X154980006Y-65964348D01*
X154893917Y-65920483D01*
X154843123Y-65872511D01*
X154826328Y-65804690D01*
X154848865Y-65738555D01*
X154893917Y-65699516D01*
X154986610Y-65652287D01*
X155007770Y-65636913D01*
X155152213Y-65531971D01*
X155152215Y-65531968D01*
X155152219Y-65531966D01*
X155296966Y-65387219D01*
X155296968Y-65387215D01*
X155296971Y-65387213D01*
X155366425Y-65291616D01*
X155417287Y-65221610D01*
X155510220Y-65039219D01*
X155573477Y-64844534D01*
X155605500Y-64642352D01*
X155605500Y-64437648D01*
X155577933Y-64263598D01*
X155573477Y-64235465D01*
X155525117Y-64086629D01*
X155510220Y-64040781D01*
X155510218Y-64040778D01*
X155510218Y-64040776D01*
X155432523Y-63888293D01*
X155417287Y-63858390D01*
X155394972Y-63827676D01*
X155296971Y-63692786D01*
X155152213Y-63548028D01*
X154986614Y-63427715D01*
X154932220Y-63400000D01*
X154893917Y-63380483D01*
X154843123Y-63332511D01*
X154826328Y-63264690D01*
X154848865Y-63198555D01*
X154893917Y-63159516D01*
X154986610Y-63112287D01*
X155068679Y-63052661D01*
X155152213Y-62991971D01*
X155152215Y-62991968D01*
X155152219Y-62991966D01*
X155296966Y-62847219D01*
X155296968Y-62847215D01*
X155296971Y-62847213D01*
X155367599Y-62750000D01*
X155417287Y-62681610D01*
X155510220Y-62499219D01*
X155573477Y-62304534D01*
X155605500Y-62102352D01*
X155605500Y-61897648D01*
X168244500Y-61897648D01*
X168244500Y-62102351D01*
X168276522Y-62304534D01*
X168339781Y-62499223D01*
X168432715Y-62681613D01*
X168553028Y-62847213D01*
X168697786Y-62991971D01*
X168838068Y-63093890D01*
X168863390Y-63112287D01*
X168946030Y-63154394D01*
X168956080Y-63159515D01*
X169006876Y-63207490D01*
X169023671Y-63275311D01*
X169001134Y-63341446D01*
X168956080Y-63380485D01*
X168863386Y-63427715D01*
X168697786Y-63548028D01*
X168553028Y-63692786D01*
X168432715Y-63858386D01*
X168339781Y-64040776D01*
X168276522Y-64235465D01*
X168244500Y-64437648D01*
X168244500Y-64642351D01*
X168276522Y-64844534D01*
X168339781Y-65039223D01*
X168432715Y-65221613D01*
X168553028Y-65387213D01*
X168697786Y-65531971D01*
X168852749Y-65644556D01*
X168863390Y-65652287D01*
X168947319Y-65695051D01*
X168956080Y-65699515D01*
X169006876Y-65747490D01*
X169023671Y-65815311D01*
X169001134Y-65881446D01*
X168956080Y-65920485D01*
X168863386Y-65967715D01*
X168697786Y-66088028D01*
X168553028Y-66232786D01*
X168432715Y-66398386D01*
X168339781Y-66580776D01*
X168276522Y-66775465D01*
X168244500Y-66977648D01*
X168244500Y-67182351D01*
X168276522Y-67384534D01*
X168339781Y-67579223D01*
X168432715Y-67761613D01*
X168553028Y-67927213D01*
X168697786Y-68071971D01*
X168852749Y-68184556D01*
X168863390Y-68192287D01*
X168954840Y-68238883D01*
X168956080Y-68239515D01*
X169006876Y-68287490D01*
X169023671Y-68355311D01*
X169001134Y-68421446D01*
X168956080Y-68460485D01*
X168863386Y-68507715D01*
X168697786Y-68628028D01*
X168553028Y-68772786D01*
X168432715Y-68938386D01*
X168339781Y-69120776D01*
X168276522Y-69315465D01*
X168244500Y-69517648D01*
X168244500Y-69722351D01*
X168276522Y-69924534D01*
X168339781Y-70119223D01*
X168432715Y-70301613D01*
X168553028Y-70467213D01*
X168697786Y-70611971D01*
X168852749Y-70724556D01*
X168863390Y-70732287D01*
X168954840Y-70778883D01*
X168956080Y-70779515D01*
X169006876Y-70827490D01*
X169023671Y-70895311D01*
X169001134Y-70961446D01*
X168956080Y-71000485D01*
X168863386Y-71047715D01*
X168697786Y-71168028D01*
X168553028Y-71312786D01*
X168432715Y-71478386D01*
X168339781Y-71660776D01*
X168276522Y-71855465D01*
X168244500Y-72057648D01*
X168244500Y-72262351D01*
X168276522Y-72464534D01*
X168339781Y-72659223D01*
X168432715Y-72841613D01*
X168553028Y-73007213D01*
X168697786Y-73151971D01*
X168852749Y-73264556D01*
X168863390Y-73272287D01*
X168954840Y-73318883D01*
X168956080Y-73319515D01*
X169006876Y-73367490D01*
X169023671Y-73435311D01*
X169001134Y-73501446D01*
X168956080Y-73540485D01*
X168863386Y-73587715D01*
X168697786Y-73708028D01*
X168553028Y-73852786D01*
X168432715Y-74018386D01*
X168339781Y-74200776D01*
X168276522Y-74395465D01*
X168244500Y-74597648D01*
X168244500Y-74802351D01*
X168276522Y-75004534D01*
X168339781Y-75199223D01*
X168432715Y-75381613D01*
X168553028Y-75547213D01*
X168697786Y-75691971D01*
X168852749Y-75804556D01*
X168863390Y-75812287D01*
X168954840Y-75858883D01*
X168956080Y-75859515D01*
X169006876Y-75907490D01*
X169023671Y-75975311D01*
X169001134Y-76041446D01*
X168956080Y-76080485D01*
X168863386Y-76127715D01*
X168697786Y-76248028D01*
X168553028Y-76392786D01*
X168432715Y-76558386D01*
X168339781Y-76740776D01*
X168276522Y-76935465D01*
X168244500Y-77137648D01*
X168244500Y-77342351D01*
X168276522Y-77544534D01*
X168339781Y-77739223D01*
X168432715Y-77921613D01*
X168553028Y-78087213D01*
X168697786Y-78231971D01*
X168852749Y-78344556D01*
X168863390Y-78352287D01*
X168954840Y-78398883D01*
X168956080Y-78399515D01*
X169006876Y-78447490D01*
X169023671Y-78515311D01*
X169001134Y-78581446D01*
X168956080Y-78620485D01*
X168863386Y-78667715D01*
X168697786Y-78788028D01*
X168553028Y-78932786D01*
X168432715Y-79098386D01*
X168339781Y-79280776D01*
X168276522Y-79475465D01*
X168244500Y-79677648D01*
X168244500Y-79882351D01*
X168276522Y-80084534D01*
X168339781Y-80279223D01*
X168391385Y-80380500D01*
X168409792Y-80416626D01*
X168432715Y-80461613D01*
X168553028Y-80627213D01*
X168697786Y-80771971D01*
X168852749Y-80884556D01*
X168863390Y-80892287D01*
X168954840Y-80938883D01*
X168956080Y-80939515D01*
X169006876Y-80987490D01*
X169023671Y-81055311D01*
X169001134Y-81121446D01*
X168956080Y-81160485D01*
X168863386Y-81207715D01*
X168697786Y-81328028D01*
X168553028Y-81472786D01*
X168432715Y-81638386D01*
X168339781Y-81820776D01*
X168276522Y-82015465D01*
X168244500Y-82217648D01*
X168244500Y-82422351D01*
X168276522Y-82624534D01*
X168339781Y-82819223D01*
X168391385Y-82920500D01*
X168427085Y-82990565D01*
X168432715Y-83001613D01*
X168553028Y-83167213D01*
X168697786Y-83311971D01*
X168852749Y-83424556D01*
X168863390Y-83432287D01*
X168954840Y-83478883D01*
X168956080Y-83479515D01*
X169006876Y-83527490D01*
X169023671Y-83595311D01*
X169001134Y-83661446D01*
X168956080Y-83700485D01*
X168863386Y-83747715D01*
X168697786Y-83868028D01*
X168553028Y-84012786D01*
X168432715Y-84178386D01*
X168339781Y-84360776D01*
X168276522Y-84555465D01*
X168244500Y-84757648D01*
X168244500Y-84962351D01*
X168276522Y-85164534D01*
X168339781Y-85359223D01*
X168432715Y-85541613D01*
X168553028Y-85707213D01*
X168697786Y-85851971D01*
X168852749Y-85964556D01*
X168863390Y-85972287D01*
X168954840Y-86018883D01*
X168956080Y-86019515D01*
X169006876Y-86067490D01*
X169023671Y-86135311D01*
X169001134Y-86201446D01*
X168956080Y-86240485D01*
X168863386Y-86287715D01*
X168697786Y-86408028D01*
X168553028Y-86552786D01*
X168432715Y-86718386D01*
X168339781Y-86900776D01*
X168276522Y-87095465D01*
X168244500Y-87297648D01*
X168244500Y-87502351D01*
X168276522Y-87704534D01*
X168339781Y-87899223D01*
X168432715Y-88081613D01*
X168553028Y-88247213D01*
X168697786Y-88391971D01*
X168852749Y-88504556D01*
X168863390Y-88512287D01*
X168935424Y-88548990D01*
X168956629Y-88559795D01*
X169007425Y-88607770D01*
X169024220Y-88675591D01*
X169001682Y-88741726D01*
X168956629Y-88780765D01*
X168863650Y-88828140D01*
X168698105Y-88948417D01*
X168698104Y-88948417D01*
X168553417Y-89093104D01*
X168553417Y-89093105D01*
X168433140Y-89258650D01*
X168340244Y-89440970D01*
X168277009Y-89635586D01*
X168268391Y-89690000D01*
X169111988Y-89690000D01*
X169079075Y-89747007D01*
X169045000Y-89874174D01*
X169045000Y-90005826D01*
X169079075Y-90132993D01*
X169111988Y-90190000D01*
X168268391Y-90190000D01*
X168277009Y-90244413D01*
X168340244Y-90439029D01*
X168433140Y-90621349D01*
X168553417Y-90786894D01*
X168553417Y-90786895D01*
X168698104Y-90931582D01*
X168863652Y-91051861D01*
X168956628Y-91099234D01*
X169007425Y-91147208D01*
X169024220Y-91215029D01*
X169001683Y-91281164D01*
X168956630Y-91320203D01*
X168863388Y-91367713D01*
X168697786Y-91488028D01*
X168553028Y-91632786D01*
X168432715Y-91798386D01*
X168339781Y-91980776D01*
X168276522Y-92175465D01*
X168244500Y-92377648D01*
X168244500Y-92582351D01*
X168276522Y-92784534D01*
X168339781Y-92979223D01*
X168432715Y-93161613D01*
X168553028Y-93327213D01*
X168697786Y-93471971D01*
X168852749Y-93584556D01*
X168863390Y-93592287D01*
X168954840Y-93638883D01*
X168956080Y-93639515D01*
X169006876Y-93687490D01*
X169023671Y-93755311D01*
X169001134Y-93821446D01*
X168956080Y-93860485D01*
X168863386Y-93907715D01*
X168697786Y-94028028D01*
X168553028Y-94172786D01*
X168432715Y-94338386D01*
X168339781Y-94520776D01*
X168276522Y-94715465D01*
X168244500Y-94917648D01*
X168244500Y-95122351D01*
X168276522Y-95324534D01*
X168339781Y-95519223D01*
X168432715Y-95701613D01*
X168553028Y-95867213D01*
X168697784Y-96011969D01*
X168734068Y-96038330D01*
X168776735Y-96093659D01*
X168782715Y-96163273D01*
X168750109Y-96225068D01*
X168689271Y-96259426D01*
X168674440Y-96261938D01*
X168637519Y-96265907D01*
X168502671Y-96316202D01*
X168502664Y-96316206D01*
X168387455Y-96402452D01*
X168387452Y-96402455D01*
X168301206Y-96517664D01*
X168301202Y-96517671D01*
X168250908Y-96652517D01*
X168244501Y-96712116D01*
X168244501Y-96712123D01*
X168244500Y-96712135D01*
X168244500Y-98407870D01*
X168244501Y-98407876D01*
X168250908Y-98467483D01*
X168301202Y-98602328D01*
X168301206Y-98602335D01*
X168387452Y-98717544D01*
X168387455Y-98717547D01*
X168502664Y-98803793D01*
X168502671Y-98803797D01*
X168637517Y-98854091D01*
X168637516Y-98854091D01*
X168644444Y-98854835D01*
X168697127Y-98860500D01*
X170392872Y-98860499D01*
X170452483Y-98854091D01*
X170587331Y-98803796D01*
X170702546Y-98717546D01*
X170788796Y-98602331D01*
X170839091Y-98467483D01*
X170845500Y-98407873D01*
X170845499Y-96712128D01*
X170839091Y-96652517D01*
X170829670Y-96627259D01*
X170788797Y-96517671D01*
X170788793Y-96517664D01*
X170702547Y-96402455D01*
X170702544Y-96402452D01*
X170587335Y-96316206D01*
X170587328Y-96316202D01*
X170452482Y-96265908D01*
X170452483Y-96265908D01*
X170415560Y-96261939D01*
X170351009Y-96235201D01*
X170311160Y-96177809D01*
X170308667Y-96107984D01*
X170344319Y-96047895D01*
X170355930Y-96038331D01*
X170392219Y-96011966D01*
X170536966Y-95867219D01*
X170536968Y-95867215D01*
X170536971Y-95867213D01*
X170614295Y-95760784D01*
X170657287Y-95701610D01*
X170750220Y-95519219D01*
X170813477Y-95324534D01*
X170845500Y-95122352D01*
X170845500Y-94917648D01*
X170831144Y-94827007D01*
X170813477Y-94715465D01*
X170750218Y-94520776D01*
X170657419Y-94338650D01*
X170657287Y-94338390D01*
X170649556Y-94327749D01*
X170536971Y-94172786D01*
X170392213Y-94028028D01*
X170226614Y-93907715D01*
X170220006Y-93904348D01*
X170133917Y-93860483D01*
X170083123Y-93812511D01*
X170066328Y-93744690D01*
X170088865Y-93678555D01*
X170133917Y-93639516D01*
X170226610Y-93592287D01*
X170247770Y-93576913D01*
X170392213Y-93471971D01*
X170392215Y-93471968D01*
X170392219Y-93471966D01*
X170536966Y-93327219D01*
X170536968Y-93327215D01*
X170536971Y-93327213D01*
X170589732Y-93254590D01*
X170657287Y-93161610D01*
X170750220Y-92979219D01*
X170813477Y-92784534D01*
X170845500Y-92582352D01*
X170845500Y-92377648D01*
X170813477Y-92175466D01*
X170750220Y-91980781D01*
X170750218Y-91980778D01*
X170750218Y-91980776D01*
X170716503Y-91914607D01*
X170657287Y-91798390D01*
X170649556Y-91787749D01*
X170536971Y-91632786D01*
X170392213Y-91488028D01*
X170226611Y-91367713D01*
X170133369Y-91320203D01*
X170082574Y-91272229D01*
X170065779Y-91204407D01*
X170088317Y-91138273D01*
X170133371Y-91099234D01*
X170226347Y-91051861D01*
X170391894Y-90931582D01*
X170391895Y-90931582D01*
X170536582Y-90786895D01*
X170536582Y-90786894D01*
X170656859Y-90621349D01*
X170749755Y-90439029D01*
X170812990Y-90244413D01*
X170821609Y-90190000D01*
X169978012Y-90190000D01*
X170010925Y-90132993D01*
X170045000Y-90005826D01*
X170045000Y-89874174D01*
X170010925Y-89747007D01*
X169978012Y-89690000D01*
X170821609Y-89690000D01*
X170812990Y-89635586D01*
X170749755Y-89440970D01*
X170656859Y-89258650D01*
X170536582Y-89093105D01*
X170536582Y-89093104D01*
X170391895Y-88948417D01*
X170226349Y-88828140D01*
X170133370Y-88780765D01*
X170082574Y-88732790D01*
X170065779Y-88664969D01*
X170088316Y-88598835D01*
X170133370Y-88559795D01*
X170133920Y-88559515D01*
X170226610Y-88512287D01*
X170247770Y-88496913D01*
X170392213Y-88391971D01*
X170392215Y-88391968D01*
X170392219Y-88391966D01*
X170536966Y-88247219D01*
X170536968Y-88247215D01*
X170536971Y-88247213D01*
X170589732Y-88174590D01*
X170657287Y-88081610D01*
X170750220Y-87899219D01*
X170813477Y-87704534D01*
X170845500Y-87502352D01*
X170845500Y-87297648D01*
X170813477Y-87095466D01*
X170750220Y-86900781D01*
X170750218Y-86900778D01*
X170750218Y-86900776D01*
X170716503Y-86834607D01*
X170657287Y-86718390D01*
X170649556Y-86707749D01*
X170536971Y-86552786D01*
X170392213Y-86408028D01*
X170226614Y-86287715D01*
X170220006Y-86284348D01*
X170133917Y-86240483D01*
X170083123Y-86192511D01*
X170066328Y-86124690D01*
X170088865Y-86058555D01*
X170133917Y-86019516D01*
X170226610Y-85972287D01*
X170247770Y-85956913D01*
X170392213Y-85851971D01*
X170392215Y-85851968D01*
X170392219Y-85851966D01*
X170536966Y-85707219D01*
X170536968Y-85707215D01*
X170536971Y-85707213D01*
X170589732Y-85634590D01*
X170657287Y-85541610D01*
X170750220Y-85359219D01*
X170813477Y-85164534D01*
X170845500Y-84962352D01*
X170845500Y-84757648D01*
X170813477Y-84555466D01*
X170750220Y-84360781D01*
X170750218Y-84360778D01*
X170750218Y-84360776D01*
X170716503Y-84294607D01*
X170657287Y-84178390D01*
X170649556Y-84167749D01*
X170536971Y-84012786D01*
X170392213Y-83868028D01*
X170226614Y-83747715D01*
X170220006Y-83744348D01*
X170133917Y-83700483D01*
X170083123Y-83652511D01*
X170066328Y-83584690D01*
X170088865Y-83518555D01*
X170133917Y-83479516D01*
X170226610Y-83432287D01*
X170247770Y-83416913D01*
X170392213Y-83311971D01*
X170392215Y-83311968D01*
X170392219Y-83311966D01*
X170536966Y-83167219D01*
X170536968Y-83167215D01*
X170536971Y-83167213D01*
X170589732Y-83094590D01*
X170657287Y-83001610D01*
X170750220Y-82819219D01*
X170813477Y-82624534D01*
X170845500Y-82422352D01*
X170845500Y-82217648D01*
X170813477Y-82015466D01*
X170750220Y-81820781D01*
X170750218Y-81820778D01*
X170750218Y-81820776D01*
X170700950Y-81724084D01*
X170657287Y-81638390D01*
X170638317Y-81612280D01*
X170536971Y-81472786D01*
X170392213Y-81328028D01*
X170226614Y-81207715D01*
X170220006Y-81204348D01*
X170133917Y-81160483D01*
X170083123Y-81112511D01*
X170066328Y-81044690D01*
X170088865Y-80978555D01*
X170133917Y-80939516D01*
X170226610Y-80892287D01*
X170247770Y-80876913D01*
X170392213Y-80771971D01*
X170392215Y-80771968D01*
X170392219Y-80771966D01*
X170536966Y-80627219D01*
X170536968Y-80627215D01*
X170536971Y-80627213D01*
X170622345Y-80509704D01*
X170657287Y-80461610D01*
X170750220Y-80279219D01*
X170813477Y-80084534D01*
X170845500Y-79882352D01*
X170845500Y-79677648D01*
X170813477Y-79475466D01*
X170750220Y-79280781D01*
X170750218Y-79280778D01*
X170750218Y-79280776D01*
X170716503Y-79214607D01*
X170657287Y-79098390D01*
X170617790Y-79044026D01*
X170536971Y-78932786D01*
X170392213Y-78788028D01*
X170226614Y-78667715D01*
X170220006Y-78664348D01*
X170133917Y-78620483D01*
X170083123Y-78572511D01*
X170066328Y-78504690D01*
X170088865Y-78438555D01*
X170133917Y-78399516D01*
X170226610Y-78352287D01*
X170247770Y-78336913D01*
X170392213Y-78231971D01*
X170392215Y-78231968D01*
X170392219Y-78231966D01*
X170536966Y-78087219D01*
X170536968Y-78087215D01*
X170536971Y-78087213D01*
X170589732Y-78014590D01*
X170657287Y-77921610D01*
X170750220Y-77739219D01*
X170813477Y-77544534D01*
X170845500Y-77342352D01*
X170845500Y-77137648D01*
X170813477Y-76935466D01*
X170750220Y-76740781D01*
X170750218Y-76740778D01*
X170750218Y-76740776D01*
X170716503Y-76674607D01*
X170657287Y-76558390D01*
X170649556Y-76547749D01*
X170536971Y-76392786D01*
X170392213Y-76248028D01*
X170226614Y-76127715D01*
X170220006Y-76124348D01*
X170133917Y-76080483D01*
X170083123Y-76032511D01*
X170066328Y-75964690D01*
X170088865Y-75898555D01*
X170133917Y-75859516D01*
X170226610Y-75812287D01*
X170247770Y-75796913D01*
X170392213Y-75691971D01*
X170392215Y-75691968D01*
X170392219Y-75691966D01*
X170536966Y-75547219D01*
X170536968Y-75547215D01*
X170536971Y-75547213D01*
X170589732Y-75474590D01*
X170657287Y-75381610D01*
X170750220Y-75199219D01*
X170813477Y-75004534D01*
X170845500Y-74802352D01*
X170845500Y-74597648D01*
X170813477Y-74395466D01*
X170750220Y-74200781D01*
X170750218Y-74200778D01*
X170750218Y-74200776D01*
X170716503Y-74134607D01*
X170657287Y-74018390D01*
X170649556Y-74007749D01*
X170536971Y-73852786D01*
X170392213Y-73708028D01*
X170226614Y-73587715D01*
X170220006Y-73584348D01*
X170133917Y-73540483D01*
X170083123Y-73492511D01*
X170066328Y-73424690D01*
X170088865Y-73358555D01*
X170133917Y-73319516D01*
X170226610Y-73272287D01*
X170247770Y-73256913D01*
X170392213Y-73151971D01*
X170392215Y-73151968D01*
X170392219Y-73151966D01*
X170536966Y-73007219D01*
X170536968Y-73007215D01*
X170536971Y-73007213D01*
X170589732Y-72934590D01*
X170657287Y-72841610D01*
X170750220Y-72659219D01*
X170813477Y-72464534D01*
X170845500Y-72262352D01*
X170845500Y-72057648D01*
X170813477Y-71855466D01*
X170750220Y-71660781D01*
X170750218Y-71660778D01*
X170750218Y-71660776D01*
X170716503Y-71594607D01*
X170657287Y-71478390D01*
X170649556Y-71467749D01*
X170536971Y-71312786D01*
X170392213Y-71168028D01*
X170226614Y-71047715D01*
X170220006Y-71044348D01*
X170133917Y-71000483D01*
X170083123Y-70952511D01*
X170066328Y-70884690D01*
X170088865Y-70818555D01*
X170133917Y-70779516D01*
X170226610Y-70732287D01*
X170247770Y-70716913D01*
X170392213Y-70611971D01*
X170392215Y-70611968D01*
X170392219Y-70611966D01*
X170536966Y-70467219D01*
X170536968Y-70467215D01*
X170536971Y-70467213D01*
X170589732Y-70394590D01*
X170657287Y-70301610D01*
X170750220Y-70119219D01*
X170813477Y-69924534D01*
X170845500Y-69722352D01*
X170845500Y-69517648D01*
X170813477Y-69315466D01*
X170750220Y-69120781D01*
X170750218Y-69120778D01*
X170750218Y-69120776D01*
X170716503Y-69054607D01*
X170657287Y-68938390D01*
X170649556Y-68927749D01*
X170536971Y-68772786D01*
X170392213Y-68628028D01*
X170226614Y-68507715D01*
X170220006Y-68504348D01*
X170133917Y-68460483D01*
X170083123Y-68412511D01*
X170066328Y-68344690D01*
X170088865Y-68278555D01*
X170133917Y-68239516D01*
X170226610Y-68192287D01*
X170247770Y-68176913D01*
X170392213Y-68071971D01*
X170392215Y-68071968D01*
X170392219Y-68071966D01*
X170536966Y-67927219D01*
X170536968Y-67927215D01*
X170536971Y-67927213D01*
X170589732Y-67854590D01*
X170657287Y-67761610D01*
X170750220Y-67579219D01*
X170813477Y-67384534D01*
X170845500Y-67182352D01*
X170845500Y-66977648D01*
X170813477Y-66775466D01*
X170750220Y-66580781D01*
X170750218Y-66580778D01*
X170750218Y-66580776D01*
X170700458Y-66483118D01*
X170657287Y-66398390D01*
X170649556Y-66387749D01*
X170536971Y-66232786D01*
X170392213Y-66088028D01*
X170226614Y-65967715D01*
X170220006Y-65964348D01*
X170133917Y-65920483D01*
X170083123Y-65872511D01*
X170066328Y-65804690D01*
X170088865Y-65738555D01*
X170133917Y-65699516D01*
X170226610Y-65652287D01*
X170247770Y-65636913D01*
X170392213Y-65531971D01*
X170392215Y-65531968D01*
X170392219Y-65531966D01*
X170536966Y-65387219D01*
X170536968Y-65387215D01*
X170536971Y-65387213D01*
X170606425Y-65291616D01*
X170657287Y-65221610D01*
X170750220Y-65039219D01*
X170813477Y-64844534D01*
X170845500Y-64642352D01*
X170845500Y-64437648D01*
X170817933Y-64263598D01*
X170813477Y-64235465D01*
X170765117Y-64086629D01*
X170750220Y-64040781D01*
X170750218Y-64040778D01*
X170750218Y-64040776D01*
X170672523Y-63888293D01*
X170657287Y-63858390D01*
X170634972Y-63827676D01*
X170536971Y-63692786D01*
X170392213Y-63548028D01*
X170226614Y-63427715D01*
X170172220Y-63400000D01*
X170133917Y-63380483D01*
X170126368Y-63373354D01*
X170116612Y-63369794D01*
X170101402Y-63349775D01*
X170083123Y-63332511D01*
X170080626Y-63322428D01*
X170074344Y-63314160D01*
X170072371Y-63289095D01*
X170066328Y-63264690D01*
X170069677Y-63254859D01*
X170068863Y-63244505D01*
X170080755Y-63222352D01*
X170088865Y-63198555D01*
X170097876Y-63190461D01*
X170101911Y-63182945D01*
X170125324Y-63165806D01*
X170130014Y-63161594D01*
X170131952Y-63160517D01*
X170226610Y-63112287D01*
X170308679Y-63052661D01*
X170392213Y-62991971D01*
X170392215Y-62991968D01*
X170392219Y-62991966D01*
X170536966Y-62847219D01*
X170536968Y-62847215D01*
X170536971Y-62847213D01*
X170607599Y-62750000D01*
X170657287Y-62681610D01*
X170750220Y-62499219D01*
X170813477Y-62304534D01*
X170817719Y-62277754D01*
X170832860Y-62182155D01*
X183220000Y-62182155D01*
X183220000Y-62750000D01*
X184174314Y-62750000D01*
X184169920Y-62754394D01*
X184117259Y-62845606D01*
X184090000Y-62947339D01*
X184090000Y-63052661D01*
X184117259Y-63154394D01*
X184169920Y-63245606D01*
X184174314Y-63250000D01*
X183220000Y-63250000D01*
X183220000Y-63817844D01*
X183226401Y-63877372D01*
X183226403Y-63877379D01*
X183276645Y-64012086D01*
X183276649Y-64012093D01*
X183362809Y-64127187D01*
X183362812Y-64127190D01*
X183477906Y-64213350D01*
X183477913Y-64213354D01*
X183612620Y-64263596D01*
X183612627Y-64263598D01*
X183672155Y-64269999D01*
X183672172Y-64270000D01*
X184240000Y-64270000D01*
X184240000Y-63315686D01*
X184244394Y-63320080D01*
X184335606Y-63372741D01*
X184437339Y-63400000D01*
X184542661Y-63400000D01*
X184644394Y-63372741D01*
X184735606Y-63320080D01*
X184740000Y-63315686D01*
X184740000Y-64270000D01*
X185307828Y-64270000D01*
X185307844Y-64269999D01*
X185367372Y-64263598D01*
X185367379Y-64263596D01*
X185502086Y-64213354D01*
X185502093Y-64213350D01*
X185617187Y-64127190D01*
X185617190Y-64127187D01*
X185703350Y-64012093D01*
X185703354Y-64012086D01*
X185753596Y-63877379D01*
X185753598Y-63877372D01*
X185759999Y-63817844D01*
X185760000Y-63817827D01*
X185760000Y-63795131D01*
X185779685Y-63728092D01*
X185832489Y-63682337D01*
X185901647Y-63672393D01*
X185965203Y-63701418D01*
X185984315Y-63722242D01*
X186060917Y-63827675D01*
X186202325Y-63969083D01*
X186364113Y-64086629D01*
X186443712Y-64127187D01*
X186542299Y-64177420D01*
X186637393Y-64208317D01*
X186732490Y-64239216D01*
X186930009Y-64270500D01*
X186930010Y-64270500D01*
X187129990Y-64270500D01*
X187129991Y-64270500D01*
X187327510Y-64239216D01*
X187517703Y-64177419D01*
X187695887Y-64086629D01*
X187857675Y-63969083D01*
X187999083Y-63827675D01*
X188116629Y-63665887D01*
X188189515Y-63522840D01*
X188237490Y-63472045D01*
X188305311Y-63455250D01*
X188371446Y-63477788D01*
X188410484Y-63522840D01*
X188483371Y-63665887D01*
X188600917Y-63827675D01*
X188742325Y-63969083D01*
X188904113Y-64086629D01*
X188983712Y-64127187D01*
X189082299Y-64177420D01*
X189177393Y-64208317D01*
X189272490Y-64239216D01*
X189470009Y-64270500D01*
X189470010Y-64270500D01*
X189669990Y-64270500D01*
X189669991Y-64270500D01*
X189867510Y-64239216D01*
X190057703Y-64177419D01*
X190235887Y-64086629D01*
X190397675Y-63969083D01*
X190539083Y-63827675D01*
X190656629Y-63665887D01*
X190729515Y-63522840D01*
X190777490Y-63472045D01*
X190845311Y-63455250D01*
X190911446Y-63477788D01*
X190950484Y-63522840D01*
X191023371Y-63665887D01*
X191140917Y-63827675D01*
X191282325Y-63969083D01*
X191444113Y-64086629D01*
X191523712Y-64127187D01*
X191622299Y-64177420D01*
X191717393Y-64208317D01*
X191812490Y-64239216D01*
X192010009Y-64270500D01*
X192010010Y-64270500D01*
X192209990Y-64270500D01*
X192209991Y-64270500D01*
X192407510Y-64239216D01*
X192597703Y-64177419D01*
X192775887Y-64086629D01*
X192937675Y-63969083D01*
X193079083Y-63827675D01*
X193196629Y-63665887D01*
X193287419Y-63487703D01*
X193349216Y-63297510D01*
X193380500Y-63099991D01*
X193380500Y-62900009D01*
X193349216Y-62702490D01*
X193297963Y-62544749D01*
X193287420Y-62512299D01*
X193196628Y-62334112D01*
X193079083Y-62172325D01*
X192937675Y-62030917D01*
X192775887Y-61913371D01*
X192745029Y-61897648D01*
X192597700Y-61822579D01*
X192407511Y-61760784D01*
X192308750Y-61745142D01*
X192209991Y-61729500D01*
X192010009Y-61729500D01*
X191944169Y-61739928D01*
X191812488Y-61760784D01*
X191622299Y-61822579D01*
X191444112Y-61913371D01*
X191351806Y-61980435D01*
X191282325Y-62030917D01*
X191282323Y-62030919D01*
X191282322Y-62030919D01*
X191140919Y-62172322D01*
X191140919Y-62172323D01*
X191140917Y-62172325D01*
X191133763Y-62182172D01*
X191023367Y-62334117D01*
X190950484Y-62477158D01*
X190902510Y-62527954D01*
X190834689Y-62544749D01*
X190768554Y-62522211D01*
X190729516Y-62477158D01*
X190656632Y-62334117D01*
X190646680Y-62320419D01*
X190539083Y-62172325D01*
X190397675Y-62030917D01*
X190235887Y-61913371D01*
X190205029Y-61897648D01*
X190057700Y-61822579D01*
X189867511Y-61760784D01*
X189768750Y-61745142D01*
X189669991Y-61729500D01*
X189470009Y-61729500D01*
X189404169Y-61739928D01*
X189272488Y-61760784D01*
X189082299Y-61822579D01*
X188904112Y-61913371D01*
X188811806Y-61980435D01*
X188742325Y-62030917D01*
X188742323Y-62030919D01*
X188742322Y-62030919D01*
X188600919Y-62172322D01*
X188600919Y-62172323D01*
X188600917Y-62172325D01*
X188593763Y-62182172D01*
X188483367Y-62334117D01*
X188410484Y-62477158D01*
X188362510Y-62527954D01*
X188294689Y-62544749D01*
X188228554Y-62522211D01*
X188189516Y-62477158D01*
X188116632Y-62334117D01*
X188106680Y-62320419D01*
X187999083Y-62172325D01*
X187857675Y-62030917D01*
X187695887Y-61913371D01*
X187665029Y-61897648D01*
X187517700Y-61822579D01*
X187327511Y-61760784D01*
X187228750Y-61745142D01*
X187129991Y-61729500D01*
X186930009Y-61729500D01*
X186864169Y-61739928D01*
X186732488Y-61760784D01*
X186542299Y-61822579D01*
X186364112Y-61913371D01*
X186271806Y-61980435D01*
X186202325Y-62030917D01*
X186202323Y-62030919D01*
X186202322Y-62030919D01*
X186060918Y-62172323D01*
X185984318Y-62277754D01*
X185928987Y-62320419D01*
X185859374Y-62326398D01*
X185797579Y-62293792D01*
X185763222Y-62232953D01*
X185760000Y-62204868D01*
X185760000Y-62182172D01*
X185759999Y-62182155D01*
X185753598Y-62122627D01*
X185753596Y-62122620D01*
X185703354Y-61987913D01*
X185703350Y-61987906D01*
X185617190Y-61872812D01*
X185617187Y-61872809D01*
X185502093Y-61786649D01*
X185502086Y-61786645D01*
X185367379Y-61736403D01*
X185367372Y-61736401D01*
X185307844Y-61730000D01*
X184740000Y-61730000D01*
X184740000Y-62684314D01*
X184735606Y-62679920D01*
X184644394Y-62627259D01*
X184542661Y-62600000D01*
X184437339Y-62600000D01*
X184335606Y-62627259D01*
X184244394Y-62679920D01*
X184240000Y-62684314D01*
X184240000Y-61730000D01*
X183672155Y-61730000D01*
X183612627Y-61736401D01*
X183612620Y-61736403D01*
X183477913Y-61786645D01*
X183477906Y-61786649D01*
X183362812Y-61872809D01*
X183362809Y-61872812D01*
X183276649Y-61987906D01*
X183276645Y-61987913D01*
X183226403Y-62122620D01*
X183226401Y-62122627D01*
X183220000Y-62182155D01*
X170832860Y-62182155D01*
X170836456Y-62159453D01*
X170845500Y-62102351D01*
X170845500Y-61897648D01*
X170813477Y-61695465D01*
X170750218Y-61500776D01*
X170716503Y-61434607D01*
X170657287Y-61318390D01*
X170649556Y-61307749D01*
X170536971Y-61152786D01*
X170392213Y-61008028D01*
X170226613Y-60887715D01*
X170226612Y-60887714D01*
X170226610Y-60887713D01*
X170169653Y-60858691D01*
X170044223Y-60794781D01*
X169849534Y-60731522D01*
X169674995Y-60703878D01*
X169647352Y-60699500D01*
X169442648Y-60699500D01*
X169418329Y-60703351D01*
X169240465Y-60731522D01*
X169045776Y-60794781D01*
X168863386Y-60887715D01*
X168697786Y-61008028D01*
X168553028Y-61152786D01*
X168432715Y-61318386D01*
X168339781Y-61500776D01*
X168276522Y-61695465D01*
X168244500Y-61897648D01*
X155605500Y-61897648D01*
X155573477Y-61695466D01*
X155510220Y-61500781D01*
X155510218Y-61500778D01*
X155510218Y-61500776D01*
X155476503Y-61434607D01*
X155417287Y-61318390D01*
X155409556Y-61307749D01*
X155296971Y-61152786D01*
X155152213Y-61008028D01*
X154986613Y-60887715D01*
X154986612Y-60887714D01*
X154986610Y-60887713D01*
X154929653Y-60858691D01*
X154804223Y-60794781D01*
X154609534Y-60731522D01*
X154434995Y-60703878D01*
X154407352Y-60699500D01*
X154202648Y-60699500D01*
X154178329Y-60703351D01*
X154000465Y-60731522D01*
X153805776Y-60794781D01*
X153623386Y-60887715D01*
X153457786Y-61008028D01*
X153313028Y-61152786D01*
X153192715Y-61318386D01*
X153099781Y-61500776D01*
X153036522Y-61695465D01*
X153004500Y-61897648D01*
X153004500Y-62102351D01*
X153036522Y-62304534D01*
X153099781Y-62499223D01*
X153192715Y-62681613D01*
X153313028Y-62847213D01*
X153457786Y-62991971D01*
X153598068Y-63093890D01*
X153623390Y-63112287D01*
X153706030Y-63154394D01*
X153716080Y-63159515D01*
X153766876Y-63207490D01*
X153783671Y-63275311D01*
X153761134Y-63341446D01*
X153716080Y-63380485D01*
X153623386Y-63427715D01*
X153457786Y-63548028D01*
X153313030Y-63692784D01*
X153243575Y-63788384D01*
X153188245Y-63831051D01*
X153143256Y-63839500D01*
X136152603Y-63839500D01*
X136044190Y-63861065D01*
X136044189Y-63861065D01*
X136030731Y-63863742D01*
X136017273Y-63866419D01*
X136017271Y-63866420D01*
X135964466Y-63888292D01*
X135964464Y-63888293D01*
X135964463Y-63888292D01*
X135889791Y-63919223D01*
X135815172Y-63969083D01*
X135815171Y-63969084D01*
X135775054Y-63995888D01*
X135775053Y-63995889D01*
X134075890Y-65695051D01*
X134075887Y-65695054D01*
X134000114Y-65808458D01*
X134000109Y-65808465D01*
X133999226Y-65809785D01*
X133999223Y-65809791D01*
X133946421Y-65937267D01*
X133946418Y-65937277D01*
X133919500Y-66072604D01*
X133919500Y-95882602D01*
X133899815Y-95949641D01*
X133868387Y-95982919D01*
X133802325Y-96030916D01*
X133660919Y-96172322D01*
X133660919Y-96172323D01*
X133660917Y-96172325D01*
X133653795Y-96182128D01*
X133543369Y-96334114D01*
X133470203Y-96477710D01*
X133422229Y-96528505D01*
X133354408Y-96545300D01*
X133288273Y-96522762D01*
X133249234Y-96477709D01*
X133176202Y-96334379D01*
X133147996Y-96295555D01*
X133147995Y-96295555D01*
X132490000Y-96953551D01*
X132490000Y-96947339D01*
X132462741Y-96845606D01*
X132410080Y-96754394D01*
X132335606Y-96679920D01*
X132244394Y-96627259D01*
X132142661Y-96600000D01*
X132136445Y-96600000D01*
X132794443Y-95942002D01*
X132794443Y-95942001D01*
X132755625Y-95913799D01*
X132755623Y-95913798D01*
X132577508Y-95823043D01*
X132387393Y-95761272D01*
X132189950Y-95730000D01*
X131990050Y-95730000D01*
X131792606Y-95761272D01*
X131602491Y-95823043D01*
X131424372Y-95913800D01*
X131385555Y-95942001D01*
X131385555Y-95942002D01*
X132043553Y-96600000D01*
X132037339Y-96600000D01*
X131935606Y-96627259D01*
X131844394Y-96679920D01*
X131769920Y-96754394D01*
X131717259Y-96845606D01*
X131690000Y-96947339D01*
X131690000Y-96953553D01*
X131032002Y-96295555D01*
X131032001Y-96295555D01*
X131003800Y-96334372D01*
X130913043Y-96512491D01*
X130851272Y-96702606D01*
X130820000Y-96900049D01*
X125250500Y-96900049D01*
X125250500Y-56901577D01*
X127649500Y-56901577D01*
X127649500Y-57098422D01*
X127680290Y-57292826D01*
X127741117Y-57480029D01*
X127791735Y-57579371D01*
X127830476Y-57655405D01*
X127946172Y-57814646D01*
X128085354Y-57953828D01*
X128244595Y-58069524D01*
X128327455Y-58111743D01*
X128419970Y-58158882D01*
X128419972Y-58158882D01*
X128419975Y-58158884D01*
X128520317Y-58191487D01*
X128607173Y-58219709D01*
X128801578Y-58250500D01*
X128801583Y-58250500D01*
X128998422Y-58250500D01*
X129192826Y-58219709D01*
X129380025Y-58158884D01*
X129555405Y-58069524D01*
X129714646Y-57953828D01*
X129853828Y-57814646D01*
X129969524Y-57655405D01*
X130058884Y-57480025D01*
X130119709Y-57292826D01*
X130131629Y-57217568D01*
X130150500Y-57098422D01*
X130150500Y-56901577D01*
X199749500Y-56901577D01*
X199749500Y-57098422D01*
X199780290Y-57292826D01*
X199841117Y-57480029D01*
X199891735Y-57579371D01*
X199930476Y-57655405D01*
X200046172Y-57814646D01*
X200185354Y-57953828D01*
X200344595Y-58069524D01*
X200427455Y-58111743D01*
X200519970Y-58158882D01*
X200519972Y-58158882D01*
X200519975Y-58158884D01*
X200620317Y-58191487D01*
X200707173Y-58219709D01*
X200901578Y-58250500D01*
X200901583Y-58250500D01*
X201098422Y-58250500D01*
X201292826Y-58219709D01*
X201480025Y-58158884D01*
X201655405Y-58069524D01*
X201814646Y-57953828D01*
X201953828Y-57814646D01*
X202069524Y-57655405D01*
X202158884Y-57480025D01*
X202219709Y-57292826D01*
X202231629Y-57217568D01*
X202250500Y-57098422D01*
X202250500Y-56901577D01*
X202219709Y-56707173D01*
X202158882Y-56519970D01*
X202069523Y-56344594D01*
X202024607Y-56282773D01*
X201953828Y-56185354D01*
X201814646Y-56046172D01*
X201655405Y-55930476D01*
X201480029Y-55841117D01*
X201292826Y-55780290D01*
X201098422Y-55749500D01*
X201098417Y-55749500D01*
X200901583Y-55749500D01*
X200901578Y-55749500D01*
X200707173Y-55780290D01*
X200519970Y-55841117D01*
X200344594Y-55930476D01*
X200253741Y-55996485D01*
X200185354Y-56046172D01*
X200185352Y-56046174D01*
X200185351Y-56046174D01*
X200046174Y-56185351D01*
X200046174Y-56185352D01*
X200046172Y-56185354D01*
X199996485Y-56253741D01*
X199930476Y-56344594D01*
X199841117Y-56519970D01*
X199780290Y-56707173D01*
X199749500Y-56901577D01*
X130150500Y-56901577D01*
X130119709Y-56707173D01*
X130058882Y-56519970D01*
X129969523Y-56344594D01*
X129924607Y-56282773D01*
X129853828Y-56185354D01*
X129714646Y-56046172D01*
X129555405Y-55930476D01*
X129380029Y-55841117D01*
X129192826Y-55780290D01*
X128998422Y-55749500D01*
X128998417Y-55749500D01*
X128801583Y-55749500D01*
X128801578Y-55749500D01*
X128607173Y-55780290D01*
X128419970Y-55841117D01*
X128244594Y-55930476D01*
X128153741Y-55996485D01*
X128085354Y-56046172D01*
X128085352Y-56046174D01*
X128085351Y-56046174D01*
X127946174Y-56185351D01*
X127946174Y-56185352D01*
X127946172Y-56185354D01*
X127896485Y-56253741D01*
X127830476Y-56344594D01*
X127741117Y-56519970D01*
X127680290Y-56707173D01*
X127649500Y-56901577D01*
X125250500Y-56901577D01*
X125250500Y-55004427D01*
X125250816Y-54995581D01*
X125267674Y-54759864D01*
X125270190Y-54742360D01*
X125319483Y-54515766D01*
X125324460Y-54498815D01*
X125405501Y-54281536D01*
X125412851Y-54265444D01*
X125517017Y-54074678D01*
X125523981Y-54061923D01*
X125533537Y-54047054D01*
X125672506Y-53861413D01*
X125684080Y-53848056D01*
X125848056Y-53684080D01*
X125861413Y-53672506D01*
X126047054Y-53533537D01*
X126061923Y-53523981D01*
X126265444Y-53412850D01*
X126281537Y-53405501D01*
X126498815Y-53324460D01*
X126515766Y-53319483D01*
X126742360Y-53270190D01*
X126759857Y-53267674D01*
X126995582Y-53250816D01*
X127004428Y-53250500D01*
X127044170Y-53250500D01*
X202955830Y-53250500D01*
X202995572Y-53250500D01*
X203004418Y-53250816D01*
G37*
G04 #@! TD.AperFunction*
M02*
